<?xml version="1.0" standalone="no"?>
<!DOCTYPE svg PUBLIC "-//W3C//DTD SVG 1.1//EN" "http://www.w3.org/Graphics/SVG/1.1/DTD/svg11.dtd" >
<svg>
<metadata>
Created by FontForge 20110222 at Sat Aug 30 13:31:58 2014
 By Orthosie Webhosting
Copyright (c) 1989, 1991 Adobe Systems Incorporated.  All Rights Reserved. Utopia is either a registered trademark or trademark of Adobe Systems Incorporated in the United States and/or other countries. Used under license. The Utopia fonts are freely available; see http://tug.org/fonts/utopia.
</metadata>
<defs>
<font id="utopiaregular" horiz-adv-x="530" >
  <font-face
    font-family="utopiaregular"
    font-weight="400"
    font-stretch="normal"
    units-per-em="1000"
    panose-1="2 0 5 3 0 0 0 0 0 0"
    ascent="800"
    descent="-200"
    x-height="490"
    cap-height="692"
    bbox="-158 -250 1158 890.457"
    underline-thickness="50"
    underline-position="-100"
    unicode-range="U+0020-FFFD"
  />
<missing-glyph horiz-adv-x="225"
 />
    <glyph glyph-name="fi" unicode="fi" horiz-adv-x="610"
d="M394 450h-193v-364q0 -38 12 -46t73 -11v-29h-254v29q54 4 64.5 12t10.5 46v363h-77v40h77v18q0 104 54 166q60 68 173 68q81 0 128.5 -28t47.5 -64q0 -22 -17.5 -34t-37.5 -12q-21 0 -28 18q-30 85 -104 85q-122 0 -122 -171v-46h146q41 0 173 12v-415q0 -38 10.5 -46
t64.5 -12v-29h-244v29q54 4 64.5 12t10.5 46v317q0 27 -6.5 36.5t-25.5 9.5z" />
    <glyph glyph-name="fl" unicode="fl" horiz-adv-x="610"
d="M107 450h-77v40h77v21q0 113 54 169q59 62 164 62q76 0 125 -28l63 28l7 -6v-649q0 -38 10.5 -46t64.5 -12v-29h-244v29q54 4 64.5 12t10.5 46v543q-11 37 -40.5 57t-65.5 20q-54 0 -86.5 -39t-32.5 -145v-33h122v-40h-122v-364q0 -38 13.5 -46t81.5 -11v-29h-264v29
q54 4 64.5 12t10.5 46v363z" />
    <glyph glyph-name=".notdef" unicode="&#xfffd;" horiz-adv-x="225"
 />
    <glyph glyph-name=".null" horiz-adv-x="0"
 />
    <glyph glyph-name="nonmarkingreturn" horiz-adv-x="333"
 />
    <glyph glyph-name="space" unicode=" " horiz-adv-x="225"
 />
    <glyph glyph-name="exclam" unicode="!" horiz-adv-x="242"
d="M121 707q39 0 49 -15t7 -52l-42 -431h-29l-40 431q-3 37 7 52t48 15zM121 -12q-28 0 -45.5 18t-17.5 45q0 28 17.5 46.5t45.5 18.5q29 0 46 -18.5t17 -46.5q-1 -28 -17.5 -45.5t-45.5 -17.5z" />
    <glyph glyph-name="quotedbl" unicode="&#x22;" horiz-adv-x="458"
d="M157 464h-20l-35 225q-7 53 45 53t45 -53zM322 464h-20l-35 225q-7 53 45 53t45 -53z" />
    <glyph glyph-name="numbersign" unicode="#"
d="M351 411h-135l-33 -133h135zM509 411h-105l-33 -133h104l-10 -46h-105l-57 -232h-54l58 232h-135l-57 -232h-55l58 232h-107l12 46h106l33 133h-107l12 46h106l52 211h54l-52 -211h135l52 211h53l-52 -211h104z" />
    <glyph glyph-name="dollar" unicode="$"
d="M243 405v227q-40 0 -74 -27t-34 -83q0 -50 29.5 -75.5t78.5 -41.5zM283 633v-243q103 -29 153.5 -78.5t50.5 -128.5q0 -46 -18 -81.5t-42.5 -54t-55.5 -30t-51.5 -14.5t-36.5 -3v-102h-40v102q-101 3 -150 39.5t-49 70.5q0 21 15 36t31 15q18 0 29 -22q49 -102 124 -104
v276q-100 30 -143.5 75.5t-43.5 108.5q0 82 55 126t132 46v76h40v-75q82 -2 128.5 -34.5t46.5 -68.5q0 -20 -15.5 -30.5t-30.5 -10.5q-19 0 -27 20q-34 84 -102 89zM283 298v-263q45 -1 81 26.5t36 90.5q0 62 -30.5 95t-86.5 51z" />
    <glyph glyph-name="percent" unicode="%" horiz-adv-x="838"
d="M630 322q-39 0 -61 -37.5t-22 -113.5q0 -72 22 -111.5t61 -39.5q40 0 62 39.5t22 111.5q0 151 -84 151zM630 -12q-78 0 -117.5 47.5t-39.5 135.5t39.5 135.5t117.5 47.5q79 0 118.5 -47.5t39.5 -135.5t-39.5 -135.5t-118.5 -47.5zM659 679l-440 -704l-36 27l374 599h-205
q13 -35 13 -104q0 -88 -39.5 -135.5t-118.5 -47.5q-78 0 -117.5 47.5t-39.5 135.5t39.5 135.5t117.5 47.5q65 0 111 -34q20 -13 43 -13h169q27 2 42.5 8.5t28.5 24.5l24 34zM207 648q-39 0 -61 -37.5t-22 -113.5q0 -72 22 -111.5t61 -39.5q40 0 62 39.5t22 111.5
q0 151 -84 151z" />
    <glyph glyph-name="ampersand" unicode="&#x26;" horiz-adv-x="706"
d="M285 645q-33 0 -57.5 -27.5t-24.5 -71.5q0 -67 65 -140q92 64 92 142q0 42 -19.5 69.5t-55.5 27.5zM264 -12q-96 0 -157.5 50t-60.5 138q0 35 12 64.5t37 53t44.5 38t52.5 34.5q-20 25 -32 43.5t-23 49t-11 62.5q0 66 46.5 112.5t116.5 46.5q63 0 105.5 -37t42.5 -101
q0 -29 -10.5 -52.5t-34 -43t-44.5 -32.5t-57 -32q94 -115 210 -221q78 91 61 255q39 22 76 17q28 -54 12 -103q-29 -84 -123 -194q38 -37 85.5 -73t79.5 -45l-5 -25l-21 2q-108 9 -166 56l-28 22q-97 -85 -208 -85zM212 338q-69 -60 -69 -142q0 -70 43 -114.5t108 -44.5
q80 0 151 61q-131 118 -233 240z" />
    <glyph glyph-name="quotesingle" unicode="'" horiz-adv-x="278"
d="M149 464h-20l-35 225q-7 53 45 53t45 -53z" />
    <glyph glyph-name="parenleft" unicode="(" horiz-adv-x="350"
d="M175 282q0 -102 15 -179t39 -118t47.5 -62t48.5 -26v-25q-63 3 -108 40t-68 99t-33.5 128.5t-10.5 142.5t10.5 142.5t33.5 128.5t68 99t108 40v-25q-26 -5 -50.5 -26t-48 -63t-37.5 -118t-14 -178z" />
    <glyph glyph-name="parenright" unicode=")" horiz-adv-x="350"
d="M175 282q0 102 -14 178t-37.5 118t-48 63t-50.5 26v25q63 -3 108 -40t68 -99t33.5 -128.5t10.5 -142.5t-10.5 -142.5t-33.5 -128.5t-68 -99t-108 -40v25q25 5 48.5 26t47.5 62t39 118t15 179z" />
    <glyph glyph-name="asterisk" unicode="*" horiz-adv-x="412"
d="M206 707q37 0 31 -31l-19 -94q-3 -12 1 -15t12 4l77 65q28 24 48 -8q20 -33 -13 -45l-96 -38q-9 -3 -12.5 -6.5t-1 -7t10.5 -6.5l96 -39q16 -7 20 -20.5t-7 -28.5q-22 -31 -48 -5l-72 69q-10 9 -13.5 5t-1.5 -17l19 -93q9 -40 -31 -40t-31 40l19 93q2 13 -1.5 17
t-13.5 -5l-72 -68q-27 -25 -48 4q-22 35 13 49l96 39q8 3 10.5 6.5t-1 7t-12.5 6.5l-95 37q-35 14 -13 46q21 31 48 7l76 -64q8 -7 12 -4t1 15l-19 94q-6 31 31 31z" />
    <glyph glyph-name="plus" unicode="+" horiz-adv-x="570"
d="M43 221v58h208v211h68v-211h208v-58h-208v-221h-68v221h-208z" />
    <glyph glyph-name="comma" unicode="," horiz-adv-x="265"
d="M70 -141l-19 19q58 63 58 116q0 22 -16.5 51t-16.5 46q0 21 13.5 35.5t35.5 14.5q27 1 47.5 -24.5t20.5 -65.5q0 -28 -10.5 -55t-34 -55t-36.5 -41.5t-42 -40.5z" />
    <glyph glyph-name="hyphen" unicode="-" horiz-adv-x="392"
d="M74 286h245v-70h-245v70z" />
    <glyph glyph-name="period" unicode="." horiz-adv-x="265"
d="M133 -12q-28 0 -45.5 18t-17.5 45q0 28 17.5 46.5t45.5 18.5q29 0 46 -18.5t17 -46.5q-1 -28 -17.5 -45.5t-45.5 -17.5z" />
    <glyph glyph-name="slash" unicode="/" horiz-adv-x="460"
d="M159 -15h-67l210 722h67z" />
    <glyph glyph-name="zero" unicode="0"
d="M265 645q-122 0 -122 -311t122 -311t122 311t-122 311zM265 680q224 0 224 -346t-224 -346t-224 346t224 346z" />
    <glyph glyph-name="one" unicode="1"
d="M437 0h-328v29l84 7q17 2 24 11q9 10 9 38v485q0 21 -5.5 29t-18.5 10l-93 11v25l206 35l5 -6v-589q0 -27 8 -37t25 -12l84 -7v-29z" />
    <glyph glyph-name="two" unicode="2"
d="M485 132l-34 -132h-414l-10 10q15 61 55.5 118.5t129.5 134.5q74 66 107.5 118t33.5 126q0 138 -99 138q-44 0 -74 -34t-43 -89q-6 -27 -29 -27q-17 0 -36 13.5t-19 36.5q0 46 57 90.5t151 44.5q87 0 142 -44.5t55 -142.5q0 -38 -10.5 -68t-32.5 -54.5t-46.5 -44.5
t-60.5 -46q-13 -9 -20 -14q-68 -49 -112 -99.5t-56 -90.5h256q32 0 49 11.5t32 49.5z" />
    <glyph glyph-name="three" unicode="3"
d="M130 366q0 28 18 28q2 0 30.5 -5t56.5 -5q58 0 82 40t24 95q0 32 -7.5 58t-30.5 47t-60 21q-80 0 -116 -112q-6 -20 -25 -20q-14 0 -31.5 13.5t-17.5 34.5q0 39 53.5 79t143.5 40q86 0 140 -40.5t54 -119.5q0 -66 -44 -102.5t-97 -45.5v-4q24 -2 50.5 -11.5t55 -29
t46.5 -55.5t18 -83q0 -95 -63 -148t-173 -53q-96 0 -153 37.5t-57 76.5q0 24 18 39.5t35 15.5q21 0 30 -28q16 -46 48.5 -76t79.5 -30q58 0 94 38.5t36 122.5q0 69 -36 116.5t-97 47.5q-28 0 -56.5 -5t-30.5 -5q-18 0 -18 28z" />
    <glyph glyph-name="four" unicode="4"
d="M300 179h-272l-9 21q134 227 298 468h73v-442h103v-47h-103v-102q0 -25 6 -33t24 -10l45 -5v-29h-264v29l64 6q19 2 27 10t8 32v102zM91 226h209v345h-2q-127 -199 -207 -345z" />
    <glyph glyph-name="five" unicode="5"
d="M426 592h-249q-15 0 -21 -5.5t-8 -23.5l-23 -187l2 -2q25 23 65.5 38t80.5 15q93 0 150 -55t57 -157q0 -101 -61 -164t-179 -63q-90 0 -145 37t-55 77q0 23 18 38t35 15q20 0 28 -24q38 -108 126 -108q63 0 96 50t33 131q0 91 -39.5 135t-94.5 44q-75 0 -137 -71l-24 12
l20 335l10 9h334l5 -8z" />
    <glyph glyph-name="six" unicode="6"
d="M272 -12q-228 0 -228 321q0 202 79 293q68 78 177 78q81 0 125 -35t44 -72q0 -20 -17.5 -32.5t-35.5 -12.5q-21 0 -26 21q-12 44 -36 70t-57 26q-71 0 -112 -75.5t-42 -233.5h2q72 88 163 86q81 2 136 -54t55 -154q0 -104 -59 -165t-168 -61zM274 371q-59 0 -94 -42
t-35 -93q0 -94 33 -153.5t96 -59.5q61 0 93 47.5t32 128.5q0 82 -37 127t-88 45z" />
    <glyph glyph-name="seven" unicode="7"
d="M72 668h416l9 -11q-12 -44 -30.5 -86t-33.5 -67.5t-43.5 -71.5t-44.5 -75q-82 -144 -75 -331q1 -21 -12 -29.5t-37 -8.5q-54 0 -54 41q0 83 36.5 168t106.5 185q84 120 109 210h-270q-32 0 -46 -10t-25 -33l-10 -21h-27z" />
    <glyph glyph-name="eight" unicode="8"
d="M265 338q-58 0 -90.5 -44.5t-32.5 -114.5q0 -69 31.5 -112.5t91.5 -43.5q61 0 92 43t31 113q0 71 -32.5 115t-90.5 44zM265 -12q-114 0 -168.5 55t-54.5 139q0 72 38.5 117.5t93.5 58.5v3q-48 13 -79 51.5t-31 97.5q0 79 56.5 124.5t144.5 45.5q89 0 145 -45t56 -125
q0 -59 -31 -97.5t-79 -51.5v-3q56 -13 94 -58.5t38 -117.5q0 -84 -54.5 -139t-168.5 -55zM265 374q51 0 77.5 40.5t26.5 97.5q-2 60 -28.5 96.5t-75.5 36.5q-50 0 -77 -36.5t-27 -96.5q0 -56 26.5 -97t77.5 -41z" />
    <glyph glyph-name="nine" unicode="9"
d="M229 268q-82 0 -137.5 49.5t-55.5 139.5q0 102 61.5 162.5t158.5 60.5q100 0 157 -67q64 -77 64 -252q0 -198 -66 -290q-60 -83 -181 -83q-83 0 -128.5 33t-45.5 72q0 22 15.5 36.5t31.5 14.5q22 0 28 -21q14 -45 38 -72.5t70 -27.5q85 0 117 116q23 88 23 213h-2
q-58 -84 -148 -84zM259 321q39 0 67.5 21.5t40.5 57.5q7 19 7 53q0 79 -31 135.5t-88 56.5t-88 -44.5t-31 -115.5q0 -73 33 -118.5t90 -45.5z" />
    <glyph glyph-name="colon" unicode=":" horiz-adv-x="265"
d="M133 -12q-28 0 -45.5 18t-17.5 45q0 28 17.5 46.5t45.5 18.5q29 0 46 -18.5t17 -46.5q-1 -28 -17.5 -45.5t-45.5 -17.5zM133 362q-28 0 -45.5 18t-17.5 46q0 27 17.5 45.5t45.5 18.5q29 0 46 -18t17 -46q-1 -28 -17.5 -46t-45.5 -18z" />
    <glyph glyph-name="semicolon" unicode=";" horiz-adv-x="265"
d="M70 -141l-19 19q58 63 58 116q0 22 -16.5 51t-16.5 46q0 21 13.5 35.5t35.5 14.5q27 1 47.5 -24.5t20.5 -65.5q0 -28 -10.5 -55t-34 -55t-36.5 -41.5t-42 -40.5zM133 362q-28 0 -45.5 18t-17.5 46q0 27 17.5 45.5t45.5 18.5q29 0 46 -18t17 -46q-1 -28 -17.5 -46
t-45.5 -18z" />
    <glyph glyph-name="less" unicode="&#x3c;" horiz-adv-x="570"
d="M524 70v-69l-478 209v80l478 209v-69l-419 -180z" />
    <glyph glyph-name="equal" unicode="=" horiz-adv-x="570"
d="M43 389h484v-58h-484v58zM43 169h484v-58h-484v58z" />
    <glyph glyph-name="greater" unicode="&#x3e;" horiz-adv-x="570"
d="M46 430v69l478 -209v-80l-478 -209v69l419 180z" />
    <glyph glyph-name="question" unicode="?" horiz-adv-x="389"
d="M197 199q-43 0 -75 26t-32 71q0 33 17.5 57t63.5 60q37 28 63 71t26 87q0 101 -64 101q-62 0 -82 -107q-4 -24 -32 -24q-17 0 -35 12.5t-18 37.5q0 14 9 32t27 37.5t54 32.5t82 14q71 0 114 -34.5t44 -101.5q0 -13 -2 -25t-7 -23t-9 -19t-12 -17t-12 -14t-14.5 -13.5
t-13.5 -10.5l-15 -10l-11 -8q-76 -53 -76 -115q0 -36 23 -54.5t45 -18.5q16 0 30 4l8 -20q-34 -28 -96 -28zM190 -12q-28 0 -45 17.5t-17 44.5t17.5 45t44.5 18q28 0 45 -18t17 -45q-1 -28 -17.5 -45t-44.5 -17z" />
    <glyph glyph-name="at" unicode="@" horiz-adv-x="793"
d="M339 219q49 0 108.5 95.5t75.5 175.5q-21 14 -47 14q-37 0 -70.5 -27.5t-54.5 -66.5t-33.5 -77.5t-12.5 -62.5q0 -51 34 -51zM534 528h65l-66 -258q-15 -60 34 -60q51 0 94.5 61.5t43.5 137.5q2 119 -70.5 188t-183.5 69q-97 0 -173 -52t-115 -133t-39 -174
q0 -50 14.5 -96.5t46 -90t91 -70t139.5 -26.5q96 0 169 31l8 -25q-82 -45 -205 -45q-64 0 -124 20t-109 57.5t-78.5 100t-29.5 140.5q0 122 58.5 216t149 141t195.5 47q139 0 222.5 -84t83.5 -209q0 -101 -67.5 -171.5t-157.5 -70.5q-49 0 -63.5 29t7.5 108l-2 1
q-27 -48 -79.5 -93.5t-103.5 -44.5q-27 1 -46.5 20t-19.5 63q0 24 9 57.5t29 72.5t48 71.5t71.5 54.5t94.5 22q30 0 55 -13z" />
    <glyph glyph-name="A" unicode="A" horiz-adv-x="635"
d="M650 0h-256v29l45 4q24 2 29.5 11.5t-2.5 31.5l-67 191h-224q-50 -156 -61 -193q-7 -20 -2 -29t27 -11l52 -5v-29h-220v29q46 2 61.5 14.5t31.5 54.5q25 64 108 298l105 296h74l212 -603q13 -38 27.5 -47t59.5 -13v-29zM387 305l-99 286h-3q-89 -262 -97 -286h199z" />
    <glyph glyph-name="B" unicode="B" horiz-adv-x="646"
d="M345 0h-310v29q66 4 78 13t12 51v506q0 42 -12 51t-78 13v29h289q121 2 177 -36q62 -42 62 -123q0 -58 -39.5 -99t-109.5 -55v-2q80 -11 130.5 -55.5t50.5 -127.5q0 -194 -250 -194zM224 355v-243q0 -47 18.5 -62t77.5 -15q168 0 168 152q0 80 -50 124t-142 44h-72z
M224 607v-217h67q167 0 167 137q0 48 -24 79t-56.5 41.5t-72.5 9.5q-57 -1 -69 -9t-12 -41z" />
    <glyph glyph-name="C" unicode="C" horiz-adv-x="684"
d="M633 668v-156h-30q-26 160 -192 160q-67 0 -117 -27.5t-78.5 -75t-42 -104t-13.5 -121.5q0 -41 6 -81t23 -85t43.5 -79t72 -56.5t104.5 -22.5q92 0 139.5 46.5t70.5 133.5h30l-14 -167q-37 -20 -99.5 -34t-120.5 -14q-187 0 -272 85q-95 95 -95 271q0 161 91 263
q92 103 282 103q128 0 212 -39z" />
    <glyph glyph-name="D" unicode="D" horiz-adv-x="779"
d="M224 600v-475q0 -58 19 -74t85 -16q67 0 117 15t91 49.5t62 98.5t21 156q0 298 -279 303q-80 0 -98 -9t-18 -48zM35 692h332q183 -2 274 -87q90 -87 90 -247q0 -204 -130 -294q-93 -64 -254 -64h-312v29q66 4 78 13t12 51v506q0 42 -12 51t-78 13v29z" />
    <glyph glyph-name="E" unicode="E" horiz-adv-x="606"
d="M35 692h505v-164h-30q-11 79 -39 104t-112 25h-98q-24 0 -30.5 -6t-6.5 -30v-242h140q32 0 50 4t27.5 16.5t13 25t7.5 40.5h30v-211h-30q-4 29 -7.5 41t-13 25t-27.5 17t-50 4h-140v-221q0 -38 5 -53t20 -22q26 -10 104 -10q100 0 138.5 25t55.5 113h30l-12 -173h-530v29
q66 4 78 13t12 51v506q0 42 -12 51t-78 13v29z" />
    <glyph glyph-name="F" unicode="F" horiz-adv-x="580"
d="M35 692h508v-160h-30q-11 78 -39 101.5t-114 23.5h-99q-25 0 -31 -5.5t-6 -30.5v-256h140q32 0 50 4t27.5 17t13 25.5t7.5 41.5h30v-214h-30q-4 29 -7.5 41.5t-13 25.5t-27.5 17t-50 4h-140v-234q0 -42 14.5 -51t91.5 -13v-29h-295v29q66 4 78 13t12 51v506q0 42 -12 51
t-78 13v29z" />
    <glyph glyph-name="G" unicode="G" horiz-adv-x="734"
d="M654 224v-197q-132 -42 -230 -42q-160 0 -252 64q-56 40 -90 115t-34 169q0 152 75 251q95 123 307 123q131 0 215 -41v-157h-30q-30 163 -195 163q-57 0 -102.5 -18.5t-74.5 -49.5t-48 -73.5t-27 -87t-8 -94.5q0 -42 6 -82.5t24 -87t47 -80.5t79.5 -56.5t116.5 -22.5
q49 0 88 15q17 7 25.5 18t8.5 36v135q0 27 -6 37t-26.5 15.5t-73.5 9.5v29h276v-29q-49 -5 -60 -14.5t-11 -47.5z" />
    <glyph glyph-name="H" unicode="H" horiz-adv-x="798"
d="M574 341h-350v-248q0 -42 12.5 -50.5t77.5 -13.5v-29h-279v29q66 4 78 13t12 51v506q0 42 -12 51t-78 13v29h279v-29q-65 -5 -77.5 -13.5t-12.5 -50.5v-220h350v220q0 42 -12 51t-78 13v29h279v-29q-65 -5 -77.5 -13.5t-12.5 -50.5v-506q0 -42 12.5 -50.5t77.5 -13.5v-29
h-279v29q66 4 78 13t12 51v248z" />
    <glyph glyph-name="I" unicode="I" horiz-adv-x="349"
d="M224 599v-506q0 -42 12.5 -50.5t77.5 -13.5v-29h-279v29q66 4 78 13t12 51v506q0 42 -12 51t-78 13v29h279v-29q-65 -5 -77.5 -13.5t-12.5 -50.5z" />
    <glyph glyph-name="J" unicode="J" horiz-adv-x="350"
d="M233 599v-456q0 -89 -20 -143.5t-82 -82.5q-60 -28 -126 -31l-5 25q63 16 93 52q41 50 41 174v462q0 42 -12 51t-78 13v29h279v-29q-65 -5 -77.5 -13.5t-12.5 -50.5z" />
    <glyph glyph-name="K" unicode="K" horiz-adv-x="658"
d="M224 599v-236q165 170 243 257q31 37 -1 40l-38 3v29h243v-29q-62 -4 -89.5 -15t-67.5 -47q-100 -87 -204 -202q94 -141 241 -298q68 -72 116 -82v-24l-63 3q-100 3 -173 86q-106 120 -204 269l-1 4h-2v-264q0 -42 12.5 -50.5t77.5 -13.5v-29h-279v29q66 4 78 13t12 51
v506q0 42 -12 51t-78 13v29h279v-29q-65 -5 -77.5 -13.5t-12.5 -50.5z" />
    <glyph glyph-name="L" unicode="L" horiz-adv-x="568"
d="M224 599v-479q0 -38 5 -53t20 -22q26 -10 107 -10q88 0 127 26t53 118h30l-12 -179h-519v29q66 4 78 13t12 51v506q0 42 -12 51t-78 13v29h285v-29q-70 -5 -83 -13.5t-13 -50.5z" />
    <glyph glyph-name="M" unicode="M" horiz-adv-x="944"
d="M271 0h-237v29q44 3 61 12t21 38q7 46 7 124v396q0 42 -12 51t-78 13v29h203q16 -39 35.5 -84t43.5 -98t38 -84l118 -267h2l120 268q86 190 115 265h201v-29q-65 -5 -77.5 -13.5t-12.5 -50.5v-506q0 -42 12.5 -50.5t77.5 -13.5v-29h-279v29q66 4 78 13t12 51v507h-3
l-261 -588h-27l-258 588h-2v-397q0 -78 7 -124q4 -29 22.5 -37.5t72.5 -12.5v-29z" />
    <glyph glyph-name="N" unicode="N" horiz-adv-x="780"
d="M34 692h192l390 -552l2 -2v351q0 78 -7 124q-4 29 -22.5 37.5t-72.5 12.5v29h237v-29q-44 -3 -61 -12t-21 -38q-7 -46 -7 -124v-489h-66l-426 602h-2v-399q0 -78 7 -124q4 -29 22.5 -37.5t72.5 -12.5v-29h-237v29q44 3 61 12t21 38q7 46 7 124v396q0 42 -12 51t-78 13v29
z" />
    <glyph glyph-name="O" unicode="O" horiz-adv-x="762"
d="M381 672q-51 0 -91 -20t-63.5 -52t-39 -76.5t-21 -87t-6.5 -90.5q1 -48 6.5 -90.5t21 -87t39 -76.5t63.5 -52t91 -20t91 20t63.5 52t39 76.5t21 87t6.5 90.5q-1 48 -6.5 90.5t-21 87t-39 76.5t-63.5 52t-91 20zM381 707q162 0 248 -97q85 -93 85 -264t-85 -264
q-86 -97 -248 -97t-248 97q-85 94 -85 264t85 264q86 97 248 97z" />
    <glyph glyph-name="P" unicode="P" horiz-adv-x="600"
d="M224 284v-191q0 -42 14.5 -51t91.5 -13v-29h-295v29q66 4 78 13t12 51v506q0 42 -12 51t-78 13v29h279q118 0 182 -40q78 -49 78 -156q0 -85 -48 -133t-117 -66q-53 -13 -128 -13h-57zM224 620v-262q0 -27 13.5 -33t60.5 -6q72 0 120 41.5t48 128.5q0 81 -44 124.5
t-122 43.5q-47 0 -61.5 -7.5t-14.5 -29.5z" />
    <glyph glyph-name="Q" unicode="Q" horiz-adv-x="762"
d="M381 672q-51 0 -91 -20t-63.5 -52t-39 -76.5t-21 -87t-6.5 -90.5q1 -48 6.5 -90.5t21 -87t39 -76.5t63.5 -52t91 -20t91 20t63.5 52t39 76.5t21 87t6.5 90.5q-1 48 -6.5 90.5t-21 87t-39 76.5t-63.5 52t-91 20zM381 707q162 0 248 -97q85 -93 85 -264t-85 -264
q-65 -73 -169 -90q20 -36 58 -77q68 -74 130 -74q16 0 26 1l3 -16q-31 -19 -84 -19q-78 0 -144.5 49t-106.5 131q-134 9 -209 95q-85 94 -85 264t85 264q86 97 248 97z" />
    <glyph glyph-name="R" unicode="R" horiz-adv-x="644"
d="M293 326h-69v-233q0 -42 12.5 -50.5t77.5 -13.5v-29h-279v29q66 4 78 13t12 51v506q0 42 -12 51t-78 13v29h292q124 0 179.5 -46.5t55.5 -124.5q0 -69 -45 -115.5t-118 -60.5v-2q73 -18 99 -60.5t37 -121.5q8 -61 29 -94t74 -38v-29h-81q-92 0 -112 86q-6 25 -16 82.5
t-13 70.5q-22 87 -123 87zM224 361h79q152 0 152 151q0 80 -45.5 112.5t-112.5 32.5q-48 0 -60.5 -9t-12.5 -41v-246z" />
    <glyph glyph-name="S" unicode="S" horiz-adv-x="541"
d="M60 45l-10 160h32q19 -86 65.5 -135.5t115.5 -49.5q67 0 105.5 37t38.5 101q0 41 -27.5 75.5t-54.5 49.5t-57 27l-18 7q-89 31 -139 77.5t-50 119.5q0 94 66 143.5t164 49.5q115 0 170 -44v-141h-31q-24 150 -150 150q-61 0 -94.5 -35t-33.5 -92q0 -42 34 -75t89 -53
l32 -12q97 -36 147 -85t50 -132q0 -85 -61.5 -144t-185.5 -59q-56 0 -111 15.5t-86 44.5z" />
    <glyph glyph-name="T" unicode="T" horiz-adv-x="621"
d="M360 657v-564q0 -42 15 -51t95 -13v-29h-319v29q80 4 95 13t15 51v564h-59q-87 0 -114 -24t-36 -107h-30v166h577v-166h-30q-9 83 -36 107t-114 24h-59z" />
    <glyph glyph-name="U" unicode="U" horiz-adv-x="791"
d="M483 692h279v-29q-65 -5 -77.5 -13.5t-12.5 -50.5v-344q0 -92 -27 -148q-57 -122 -250 -122q-192 0 -249 122q-25 51 -27 146v346q0 42 -12 51t-78 13v29h279v-29q-65 -5 -77.5 -13.5t-12.5 -50.5v-324q0 -135 45 -195q47 -60 132 -60q86 0 133 60q45 60 45 195v324
q0 42 -12 51t-78 13v29z" />
    <glyph glyph-name="V" unicode="V" horiz-adv-x="634"
d="M-18 692h258v-29l-52 -5q-18 -1 -21.5 -9t2.5 -27q30 -91 88 -255l93 -257l2 -2l104 287q65 182 78 232q5 14 0.5 22t-22.5 9l-55 5v29h221v-29q-43 -2 -57.5 -10t-29.5 -42q-37 -81 -105 -266l-128 -345h-71l-113 320l-104 284q-15 39 -30 48t-58 11v29z" />
    <glyph glyph-name="W" unicode="W" horiz-adv-x="940"
d="M748 692h229v-29q-48 -3 -63 -13.5t-30 -53.5q-6 -15 -69 -239l-100 -357h-76q-82 288 -167 554h-2l-157 -554h-77l-85 319l-79 279q-12 43 -25.5 53t-59.5 12v29h251v-29l-50 -5q-18 -2 -22.5 -9t1.5 -32q76 -300 136 -497h2l153 554h75l169 -554h3l74 286
q47 178 53 213q7 34 -22 38l-62 6v29z" />
    <glyph glyph-name="X" unicode="X" horiz-adv-x="624"
d="M220 0h-239v29q49 5 65.5 13t41.5 41q24 32 93 135t86 127l-160 255q-26 41 -44 51.5t-65 11.5v29h258v-29l-48 -5q-28 -3 -9 -34l125 -196h2q76 110 129 198q18 30 -9 33l-48 4v29h221v-29q-45 -2 -64 -12t-51 -49q-70 -86 -156 -213l196 -303q22 -34 40.5 -43.5
t72.5 -13.5v-29h-284v29l55 6q32 3 16 29l-152 241h-2q-84 -130 -145 -242q-15 -24 11 -27l64 -7v-29z" />
    <glyph glyph-name="Y" unicode="Y" horiz-adv-x="588"
d="M461 0h-311v29q77 4 91.5 13t14.5 51v149q0 29 -15 58q-63 127 -164 313q-16 31 -32 39.5t-57 10.5v29h259v-29l-59 -6q-23 -3 -11 -30q62 -136 154 -302h2q113 221 146 301q12 29 -12 32l-54 5v29h219v-29q-49 -2 -64.5 -12.5t-42.5 -53.5q-57 -92 -157 -292
q-13 -26 -13 -59v-153q0 -42 14.5 -51t91.5 -13v-29z" />
    <glyph glyph-name="Z" unicode="Z" horiz-adv-x="610"
d="M71 692h511l6 -13l-447 -644h202q120 0 163 26t56 117h32l-10 -178h-570l-5 13l447 644h-179q-102 0 -133.5 -25t-40.5 -112h-32v172z" />
    <glyph glyph-name="bracketleft" unicode="[" horiz-adv-x="330"
d="M196 610v-656q0 -35 14.5 -43.5t81.5 -11.5v-27h-159v820h159v-27q-67 -3 -81.5 -11.5t-14.5 -43.5z" />
    <glyph glyph-name="backslash" unicode="\" horiz-adv-x="460"
d="M302 -15l-211 722h67l211 -722h-67z" />
    <glyph glyph-name="bracketright" unicode="]" horiz-adv-x="330"
d="M134 -46v656q0 35 -14.5 43.5t-81.5 11.5v27h159v-820h-159v27q67 3 81.5 11.5t14.5 43.5z" />
    <glyph glyph-name="asciicircum" unicode="^" horiz-adv-x="570"
d="M514 228h-71l-156 371l-160 -371h-71l196 440h71z" />
    <glyph glyph-name="underscore" unicode="_" horiz-adv-x="500"
d="M500 -75v-50h-500v50h500z" />
    <glyph glyph-name="grave" unicode="`" horiz-adv-x="400"
d="M271 562l-15 -20l-151 84q-56 30 -56 54q0 14 13.5 28.5t25.5 14.5q24 0 64 -41z" />
    <glyph glyph-name="a" unicode="a" horiz-adv-x="523"
d="M343 143v141q-19 -12 -115 -48q-42 -16 -60 -36.5t-18 -55.5q0 -46 23.5 -74.5t68.5 -28.5q38 0 69.5 24t31.5 78zM433 369v-242q0 -78 35 -86q21 -6 51 1l6 -24q-60 -30 -118 -30q-25 0 -39 15t-26 45q-88 -58 -149 -60q-67 0 -105.5 41t-38.5 101q0 91 93 119
q15 5 47.5 14.5t51 15.5t42.5 14.5t38.5 16.5t21.5 15v42q0 54 -25 77t-60 23q-74 0 -103 -98q-8 -28 -32 -28q-18 0 -37 12.5t-19 34.5q0 43 60 78.5t142 35.5q54 0 89 -12t50 -33.5t20 -41t5 -46.5z" />
    <glyph glyph-name="b" unicode="b" horiz-adv-x="598"
d="M108 -12l-18 8v646q0 28 -6 36t-26 10l-38 4v25l157 25l7 -6v-305q3 2 30.5 19.5t42.5 25.5t43.5 17t55.5 9q51 0 89 -20.5t57 -48t30.5 -65t14 -62.5t2.5 -50q0 -74 -20 -127.5t-55.5 -83.5t-78 -43.5t-95.5 -13.5q-84 0 -152 39zM184 321v-158q0 -42 7 -63
q28 -77 110 -77q144 0 144 227q0 61 -14 103.5t-36 61.5t-41 26t-38 7q-87 0 -122 -70q-10 -20 -10 -57z" />
    <glyph glyph-name="c" unicode="c" horiz-adv-x="496"
d="M300 40q53 0 86.5 26t57.5 80l29 -14q-13 -50 -47 -84t-70.5 -47t-74.5 -13q-113 0 -172.5 64t-59.5 188q0 53 13 97.5t40 82.5t75.5 60t114.5 22q77 0 125.5 -30t48.5 -67q0 -25 -19.5 -38t-39.5 -13q-21 0 -31 26q-32 87 -95 87q-56 0 -92 -51.5t-36 -157.5
q0 -39 6.5 -74.5t22 -69.5t46 -54t72.5 -20z" />
    <glyph glyph-name="d" unicode="d" horiz-adv-x="598"
d="M583 0h-162l-8 7v49q-83 -68 -155 -68q-98 0 -153.5 67.5t-55.5 179.5q0 126 69 198q67 69 185 69q66 0 111 -24v164q0 28 -6 36t-26 10l-38 4v25l157 25l7 -6v-649q0 -38 10.5 -46t64.5 -12v-29zM414 170v176q0 39 -9 58q-28 63 -103 63q-74 0 -111.5 -59.5
t-37.5 -160.5q0 -90 36 -147.5t102 -57.5q88 0 116 72q7 20 7 56z" />
    <glyph glyph-name="e" unicode="e" horiz-adv-x="514"
d="M441 263h-288q-4 -224 147 -224q54 0 87.5 28t57.5 78l30 -16q-48 -140 -195 -141q-119 -1 -175 64.5t-56 188.5q0 118 58.5 189.5t171.5 71.5q52 0 91 -15.5t59.5 -37.5t33 -52t15.5 -52t3 -44q0 -38 -40 -38zM154 301h189q20 0 27 8t7 24q0 14 -1.5 29t-8 35
t-17.5 34.5t-31 25t-46 10.5q-36 0 -62 -19.5t-37 -49t-15.5 -53.5t-4.5 -44z" />
    <glyph glyph-name="f" unicode="f" horiz-adv-x="319"
d="M201 450v-364q0 -38 13.5 -46t81.5 -11v-29h-264v29q54 4 64.5 12t10.5 46v363h-77v40h77v35q0 104 33 154q19 29 52.5 46t74.5 17q56 0 89 -22.5t33 -50.5q0 -21 -16 -34t-33 -13q-18 0 -27 17q-17 40 -33.5 54t-34.5 14q-51 0 -48 -105l4 -112h122v-40h-122z" />
    <glyph glyph-name="g" unicode="g" horiz-adv-x="520"
d="M260 467q-45 0 -75 -32t-30 -101q0 -61 29.5 -94.5t73.5 -33.5q45 0 73.5 33.5t28.5 94.5q0 67 -29.5 100t-70.5 33zM281 -207q58 0 100.5 31t42.5 87q0 96 -153 96q-73 0 -103 -23q-31 -24 -31 -75q0 -53 39.5 -84.5t104.5 -31.5zM389 471l128 41l8 -9l-20 -63l-79 -12
q30 -30 30 -94q0 -57 -31.5 -95.5t-75 -53t-95.5 -14.5q-22 0 -51 3q-17 -5 -34 -17.5t-17 -31.5q0 -43 83 -43h80q87 0 140 -35t53 -111q0 -89 -79 -137q-68 -41 -171 -41q-93 0 -154.5 37t-61.5 109q0 25 11 45t31.5 32.5t35 19t37.5 13.5v2q-35 4 -61.5 27.5t-26.5 50.5
q0 53 92 89v2q-42 11 -75 48t-33 101q0 65 51 116.5t156 51.5q83 0 129 -31z" />
    <glyph glyph-name="h" unicode="h" horiz-adv-x="607"
d="M517 343v-256q0 -37 11.5 -45.5t63.5 -12.5v-29h-244v29q52 4 63.5 12.5t11.5 45.5v236q0 125 -105 125q-38 0 -71 -21t-49 -52q-9 -17 -9 -54v-234q0 -37 11.5 -45.5t63.5 -12.5v-29h-243v29q52 4 63.5 12.5t10.5 45.5v555q0 26 -6 34t-26 11l-38 5v25l156 25l7 -6v-310
q77 51 108 63q35 13 73 13q70 0 109 -41.5t39 -117.5z" />
    <glyph glyph-name="i" unicode="i" horiz-adv-x="291"
d="M37 477l157 25l7 -6v-409q0 -38 10.5 -46t64.5 -12v-29h-244v29q54 4 64.5 12t10.5 46v315q0 26 -6 34t-26 11l-38 5v25zM153 715q27 0 44 -17.5t17 -44.5q-1 -27 -17.5 -43.5t-43.5 -16.5t-44 17t-17 43q0 27 17 44.5t44 17.5z" />
    <glyph glyph-name="j" unicode="j" horiz-adv-x="280"
d="M200 496v-489q0 -102 -33.5 -161t-123.5 -79q-42 -9 -74 -9l-2 24q88 22 113 71q26 51 26 183v366q0 25 -6 33.5t-26 11.5l-38 5v25l157 25zM153 715q27 0 44 -17.5t17 -44.5q-1 -27 -17.5 -43.5t-43.5 -16.5t-44 17t-17 43q0 27 17 44.5t44 17.5z" />
    <glyph glyph-name="k" unicode="k" horiz-adv-x="524"
d="M95 87v555q0 28 -6 36t-26 10l-38 4v25l157 25l7 -6v-468h2q40 59 151 193q15 18 26.5 23.5t36.5 5.5h103v-28q-68 -7 -117 -43q-53 -39 -114 -109q-11 -12 -3 -23q80 -113 178 -210q42 -42 86 -54v-28l-75 3q-61 4 -108 51q-97 99 -164 205h-2v-167q0 -38 10.5 -46
t64.5 -12v-29h-244v29q54 4 64.5 12t10.5 46z" />
    <glyph glyph-name="l" unicode="l" horiz-adv-x="279"
d="M189 736v-649q0 -38 10.5 -46t64.5 -12v-29h-244v29q54 4 64.5 12t10.5 46v555q0 28 -6 36t-26 10l-38 4v25l157 25z" />
    <glyph glyph-name="m" unicode="m" horiz-adv-x="923"
d="M37 477l155 25l9 -76q30 22 46 33t55 27t74 16q93 0 132 -77q4 2 29.5 20t42 27.5t46 19.5t58.5 10q71 0 110 -41.5t39 -117.5v-256q0 -38 10.5 -46t64.5 -12v-29h-244v29q54 4 64.5 12t10.5 46v236q0 64 -26.5 95.5t-74.5 29.5q-41 0 -71.5 -20.5t-42.5 -51.5
q-7 -19 -7 -55v-234q0 -38 10.5 -46t64.5 -12v-29h-244v29q54 4 64.5 12t10.5 46v236q0 58 -19 91.5t-77 33.5q-39 0 -71 -21t-47 -53q-8 -16 -8 -53v-234q0 -38 10.5 -46t64.5 -12v-29h-244v29q54 4 64.5 12t10.5 46v315q0 26 -6 34t-26 11l-38 5v25z" />
    <glyph glyph-name="n" unicode="n" horiz-adv-x="619"
d="M529 343v-256q0 -38 10.5 -46t64.5 -12v-29h-244v29q54 4 64.5 12t10.5 46v236q0 125 -105 125q-38 0 -70 -20.5t-49 -51.5q-10 -20 -10 -55v-234q0 -38 10.5 -46t64.5 -12v-29h-244v29q54 4 64.5 12t10.5 46v315q0 26 -6 34t-26 11l-38 5v25l149 25l14 -76q4 3 25 16.5
t26 16.5t22.5 13t26 13t24 8.5t29.5 7t29 1.5q69 0 108 -42t39 -117z" />
    <glyph glyph-name="o" unicode="o" horiz-adv-x="577"
d="M288 502q120 0 180 -66.5t60 -190.5t-60 -190.5t-180 -66.5q-118 0 -178.5 67t-60.5 190t60.5 190t178.5 67zM153 245q0 -106 34 -164t101 -58q68 0 102 58t34 164t-34 164t-102 58q-67 0 -101 -58t-34 -164z" />
    <glyph glyph-name="p" unicode="p" horiz-adv-x="608"
d="M194 321v-164q0 -40 7 -61q12 -34 40.5 -53.5t67.5 -19.5q146 0 146 227q0 60 -14 102.5t-36 61.5t-41 26.5t-38 7.5q-84 0 -119 -70q-13 -26 -13 -57zM30 477l151 25l13 -74q5 3 24.5 16.5t32 21t32.5 17.5t40 14.5t41 4.5q52 0 90 -19.5t57.5 -46t31 -64t14 -63
t2.5 -53.5q0 -144 -69 -206t-182 -62q-74 0 -114 23v-154q0 -38 13 -46t77 -12v-29h-259v29q53 4 64 12t11 46v545q0 26 -6 34t-26 11l-38 5v25z" />
    <glyph glyph-name="q" unicode="q" horiz-adv-x="591"
d="M508 502v-645q0 -38 11 -46t64 -12v-29h-249v29q57 4 68.5 12t11.5 46v196q-89 -65 -157 -65q-94 0 -151 64t-57 181q0 128 70 200q67 69 187 69q76 0 132 -31l43 31h27zM414 171v169q0 37 -8 58q-26 69 -108 69q-73 0 -109 -61t-36 -160q0 -90 35.5 -147t106.5 -57
q85 0 112 74q7 19 7 55z" />
    <glyph glyph-name="r" unicode="r" horiz-adv-x="389"
d="M189 502l12 -80q53 46 79.5 63t52.5 17q27 0 40 -15t13 -34q0 -23 -14 -39.5t-32 -16.5q-11 0 -20 5q-40 22 -62 22q-21 0 -39 -25.5t-18 -77.5v-234q0 -38 14 -46t81 -12v-29h-264v29q53 4 64 12t11 46v315q0 26 -6 34t-26 11l-38 5v25z" />
    <glyph glyph-name="s" unicode="s" horiz-adv-x="436"
d="M367 351h-29q-6 50 -34 83t-78 33q-39 0 -64 -21.5t-26 -59.5q0 -26 20.5 -46t38.5 -27t48 -17q82 -25 119.5 -61t37.5 -99q0 -65 -50 -106.5t-137 -41.5q-102 0 -156 48l-10 131h29q34 -144 146 -144q40 0 66.5 22.5t26.5 60.5q0 24 -9.5 42.5t-28 30.5t-33.5 18.5
t-37 13.5q-71 21 -110.5 54.5t-40.5 90.5q1 70 50 108t132 38q82 0 129 -34v-117z" />
    <glyph glyph-name="t" unicode="t" horiz-adv-x="344"
d="M326 450h-129v-310q0 -100 66 -100q40 0 71 13l8 -21q-71 -44 -128 -44q-17 0 -33 4t-35 14.5t-31 35t-12 60.5v348h-72v40h76l61 126h29v-126h129v-40z" />
    <glyph glyph-name="u" unicode="u" horiz-adv-x="606"
d="M591 0h-160l-10 60q-1 -1 -37 -23t-72 -35.5t-74 -13.5q-63 0 -102.5 35t-39.5 115v264q0 26 -6 34t-26 11l-38 5v25l157 25l7 -6v-340q0 -56 27.5 -85t73.5 -29q39 0 72.5 20.5t50.5 54.5q8 16 8 60v225q0 26 -6 34t-26 11l-38 5v25l157 25l7 -6v-409q0 -38 11 -46
t64 -12v-29z" />
    <glyph glyph-name="v" unicode="v" horiz-adv-x="504"
d="M339 490h190v-29q-35 -2 -48 -9.5t-24 -33.5q-44 -100 -72 -176l-89 -242h-72l-77 216q-53 146 -75 200q-11 27 -23 34.5t-48 10.5v29h224v-29l-45 -5q-26 -3 -16 -29l59 -169l61 -168h2l67 185q38 105 50 154q7 24 -15 27l-49 5v29z" />
    <glyph glyph-name="w" unicode="w" horiz-adv-x="768"
d="M-2 490h211v-29l-35 -3q-27 -3 -18 -30q9 -30 43.5 -151t55.5 -188h2l116 389h76l125 -389h2q83 304 90 334q7 31 -14 33l-57 5v29h197v-29q-39 -2 -52.5 -11.5t-25.5 -46.5q-100 -312 -126 -403h-76l-123 381h-3l-118 -381h-76q-35 125 -128 418q-9 27 -21 34t-45 9v29z
" />
    <glyph glyph-name="x" unicode="x" horiz-adv-x="486"
d="M193 0h-192v29q36 2 55 10t37 33q40 53 117 165q-95 142 -128 187q-17 24 -29.5 29.5t-44.5 7.5v29h209v-29l-30 -3q-11 -1 -13 -8.5t4 -16.5l84 -125h1l80 126q13 20 -7 23l-39 4v29h186v-29q-37 -2 -52.5 -8.5t-34.5 -29.5q-68 -82 -111 -147q60 -96 137 -206
q18 -26 34 -32.5t53 -8.5v-29h-235v29l42 5q23 3 7 28l-89 139h-2q-68 -104 -88 -143q-12 -21 7 -24l42 -5v-29z" />
    <glyph glyph-name="y" unicode="y" horiz-adv-x="506"
d="M-5 490h229v-29l-43 -4q-16 -1 -18.5 -9.5t3.5 -21.5l123 -335h2q89 242 111 331q8 31 -14 34l-52 5v29h192v-29q-36 -2 -48 -11t-26 -40q-64 -144 -185 -492q-18 -53 -37.5 -87t-38.5 -49t-33.5 -19.5t-32.5 -4.5q-30 0 -50 16.5t-20 35.5q0 21 14.5 38.5t29.5 17.5
q14 0 30 -14q21 -21 37 -21q25 0 44 42q24 51 24 85q0 26 -8 49q-53 153 -157 402q-13 33 -26.5 41.5t-49.5 10.5v29z" />
    <glyph glyph-name="z" unicode="z" horiz-adv-x="480"
d="M445 490l8 -14l-312 -441h129q84 0 116.5 24t44.5 94h31l-10 -153h-425l-8 15l315 440h-100q-80 0 -106 -21.5t-36 -91.5h-31v148h384z" />
    <glyph glyph-name="braceleft" unicode="{" horiz-adv-x="340"
d="M79 267v30q52 -1 72 29t14 85l-10 94q-6 31 -3 64t11.5 60.5t36.5 45t72 17.5h26v-27q-57 -3 -71.5 -34.5t-8.5 -91.5l8 -77q1 -6 2.5 -23.5t2 -23.5t1.5 -21.5t-0.5 -22t-4 -19t-7.5 -18.5t-12 -15t-17.5 -14.5t-24.5 -10.5t-31 -9v-6q17 -4 31 -9t24.5 -10.5
t17.5 -14.5t12 -15t7.5 -18.5t4 -19t0.5 -22t-1.5 -21.5t-2 -23.5t-2.5 -23.5l-8 -77q-6 -60 8.5 -91.5t71.5 -34.5v-27h-26q-44 0 -72 17.5t-36.5 45t-11.5 60.5t3 64l10 94q7 58 -11 86t-75 28z" />
    <glyph glyph-name="bar" unicode="|" horiz-adv-x="228"
d="M80 -250v1000h68v-1000h-68z" />
    <glyph glyph-name="braceright" unicode="}" horiz-adv-x="340"
d="M261 297v-30q-55 0 -73.5 -28.5t-12.5 -85.5l10 -94q6 -31 3 -64t-11.5 -60.5t-36.5 -45t-72 -17.5h-26v27q57 3 71.5 34.5t8.5 91.5l-8 77q-1 6 -2.5 23.5t-2 23.5t-1.5 21.5t0.5 22t4 19t7.5 18.5t12 15t17.5 14.5t24.5 10.5t31 9v6q-17 4 -31 9t-24.5 10.5t-17.5 14.5
t-12 15t-7.5 18.5t-4 19t-0.5 22t1.5 21.5t2 23.5t2.5 23.5l8 77q6 60 -8.5 91.5t-71.5 34.5v27h26q44 0 72 -17.5t36.5 -45t11.5 -60.5t-3 -64l-10 -94q-6 -57 12.5 -85.5t73.5 -28.5z" />
    <glyph glyph-name="asciitilde" unicode="~" horiz-adv-x="570"
d="M457 317l40 -25q-46 -101 -120 -101q-28 0 -95 23q-61 23 -90 23q-27 0 -44 -14.5t-34 -47.5l-41 25q23 49 52 77.5t78 28.5q34 0 93 -23q65 -23 84 -23q25 0 39.5 11.5t37.5 45.5z" />
    <glyph glyph-name="exclamdown" unicode="&#xa1;" horiz-adv-x="242"
d="M121 -217q-39 0 -49 15t-7 52l42 431h29l40 -431q3 -37 -7 -52t-48 -15zM121 502q28 0 45.5 -18t17.5 -45q0 -28 -17.5 -46.5t-45.5 -18.5q-29 0 -46 18.5t-17 46.5q1 28 17.5 45.5t45.5 17.5z" />
    <glyph glyph-name="cent" unicode="&#xa2;"
d="M261 599v76h40v-76q94 -1 136.5 -33.5t42.5 -65.5q0 -21 -16 -34t-36 -13q-19 0 -30 24q-36 82 -97 87v-427q53 -1 91 19.5t69 74.5l26 -16q-25 -63 -75 -95t-111 -33v-97h-40v97q-109 0 -166.5 66t-57.5 193q0 125 62 186t162 67zM261 140v424q-16 -1 -27.5 -4t-32 -15
t-33.5 -32.5t-23 -61t-10 -95.5q0 -189 126 -216z" />
    <glyph glyph-name="sterling" unicode="&#xa3;"
d="M460 0h-429l-4 5l18 40q71 24 116 56.5t45 83.5q0 50 -34 106h-119v38h102q-59 106 -59 169q0 82 55 132t138 50q75 0 120 -33t45 -75q0 -19 -14.5 -30.5t-29.5 -11.5q-23 0 -29 18q-14 46 -41 71.5t-63 25.5q-43 0 -69 -29.5t-26 -75.5q0 -33 14.5 -74t26.5 -62.5
t43 -74.5h152v-38h-136q7 -26 10 -58q0 -48 -26 -84.5t-84 -68.5v-4h225q9 0 16 1.5t13.5 5.5t10.5 6t10.5 9.5t8.5 10.5t8.5 13t8.5 12l27 -9z" />
    <glyph glyph-name="currency" unicode="&#xa4;"
d="M265 559q85 0 134 -46l27 39q29 43 62 15q37 -30 -8 -65l-39 -30q46 -59 46 -138t-46 -138l39 -30q45 -35 8 -65q-33 -28 -62 15l-27 39q-49 -46 -134 -46t-134 46l-27 -39q-29 -43 -62 -15q-37 30 8 65l39 30q-46 59 -46 138t46 138l-39 30q-45 35 -8 65q33 28 62 -15
l27 -39q49 46 134 46zM265 506q-65 0 -107.5 -49t-42.5 -123t42.5 -123t107.5 -49t107.5 49t42.5 123t-42.5 123t-107.5 49z" />
    <glyph glyph-name="yen" unicode="&#xa5;"
d="M-2 668h219v-29l-47 -4q-23 -3 -12 -25l123 -262q14 32 55.5 123.5t56.5 129.5q11 30 -10 32l-55 6v29h197v-29l-28 -4q-20 -3 -30.5 -12t-25.5 -34q-40 -65 -118 -241h150v-38h-164q-6 -13 -6 -55v-30h170v-38h-170v-100q0 -37 13.5 -45.5t81.5 -12.5v-29h-281v29
q68 4 81.5 12.5t13.5 45.5v100h-170v38h170v29q0 37 -10 56h-160v38h146l-121 250q-17 35 -43 38l-26 3v29z" />
    <glyph glyph-name="brokenbar" unicode="&#xa6;" horiz-adv-x="228"
d="M80 675h68v-350h-68v350zM80 -175v350h68v-350h-68z" />
    <glyph glyph-name="section" unicode="&#xa7;" horiz-adv-x="554"
d="M248 242q143 -74 175 -143q33 25 33 89q0 54 -39 104t-102 84q-6 4 -32 18.5t-33 19t-27 17t-27.5 20t-20 19t-19 23t-11.5 24.5q-47 -34 -47 -100q0 -96 150 -175zM46 380q0 98 87 182q4 56 45 100.5t125 44.5q54 0 94.5 -21.5t40.5 -52.5q0 -19 -13.5 -29.5
t-29.5 -10.5q-17 0 -27 16q-36 63 -89 63q-35 0 -57 -23t-22 -53q0 -19 4.5 -32.5t35.5 -42t91 -59.5q92 -48 134 -99t42 -127q0 -95 -70 -185q2 -68 -46.5 -117t-130.5 -49q-62 0 -107.5 25.5t-46.5 56.5q0 20 13.5 33t33.5 13q16 0 27 -19q42 -72 108 -72q32 0 55.5 24
t23.5 61q0 41 -30.5 77t-120.5 82q-97 49 -133.5 99.5t-36.5 114.5z" />
    <glyph glyph-name="dieresis" unicode="&#xa8;" horiz-adv-x="400"
d="M96 570q-28 0 -44 17t-16 40t16 39.5t44 16.5t44 -16.5t16 -39.5t-16 -40t-44 -17zM304 570q-28 0 -44 17t-16 40t16 39.5t44 16.5t44 -16.5t16 -39.5t-16 -40t-44 -17z" />
    <glyph glyph-name="copyright" unicode="&#xa9;" horiz-adv-x="818"
d="M563 421h-20q-9 48 -33.5 74.5t-81.5 26.5q-65 0 -96.5 -47t-31.5 -118q0 -34 6.5 -64t21 -57t41.5 -43t64 -16q48 0 76 24.5t42 78.5h20l-11 -100q-42 -31 -137 -31q-105 0 -154.5 54t-49.5 145q0 93 54.5 147.5t156.5 54.5q85 0 133 -31v-98zM409 -15
q-151 0 -257.5 105.5t-106.5 255.5t106.5 255.5t257.5 105.5t257.5 -105.5t106.5 -255.5t-106.5 -255.5t-257.5 -105.5zM409 662q-126 0 -213 -91.5t-87 -224.5t87 -224.5t213 -91.5t213 91.5t87 224.5t-87 224.5t-213 91.5z" />
    <glyph glyph-name="ordfeminine" unicode="&#xaa;" horiz-adv-x="390"
d="M235 366v78q-26 -7 -63 -21q-53 -19 -53 -61q0 -27 15 -44t44 -18q22 2 39.5 17.5t17.5 48.5zM304 510v-154q0 -48 25 -54q11 -2 32 0l3 -18q-22 -9 -40 -13q-23 -5 -43 -5q-33 0 -46 38q-2 -1 -13 -8.5t-18 -11t-19 -9t-23.5 -8t-23.5 -2.5q-47 0 -72.5 26t-25.5 64
q0 26 16.5 43.5t62.5 33.5q13 5 116 39v38q0 27 -14.5 40t-33.5 13q-44 0 -62 -51q-9 -26 -28 -26q-14 0 -29 9.5t-15 22.5q0 28 41.5 50.5t97.5 22.5q37 0 61 -7t34.5 -20.5t13.5 -25t3 -27.5z" />
    <glyph glyph-name="guillemotleft" unicode="&#xab;" horiz-adv-x="442"
d="M196 435l20 -17l-79 -163q-9 -15 0 -34l79 -164l-20 -16l-150 182q-13 16 0 31zM381 435l20 -17l-79 -163q-9 -15 0 -34l79 -164l-20 -16l-150 182q-13 16 0 31z" />
    <glyph glyph-name="logicalnot" unicode="&#xac;" horiz-adv-x="570"
d="M459 102v229h-416v58h484v-287h-68z" />
    <glyph glyph-name="registered" unicode="&#xae;" horiz-adv-x="818"
d="M412 159h-168v20l31 4q20 2 20 28v275q0 15 -4 21.5t-16 8.5l-31 4v20h180q130 0 130 -94q0 -40 -26.5 -64t-70.5 -31v-2q41 -10 56 -32.5t22 -63.5q7 -39 27 -62q10 -10 35 -17v-15h-44q-58 0 -73 43q-7 21 -14.5 57t-11.5 45q-14 30 -60 30h-34v-123q0 -26 22 -28
l30 -4v-20zM360 491v-129h38q86 0 86 76q0 74 -79 74q-29 0 -37 -4.5t-8 -16.5zM409 -15q-151 0 -257.5 105.5t-106.5 255.5t106.5 255.5t257.5 105.5t257.5 -105.5t106.5 -255.5t-106.5 -255.5t-257.5 -105.5zM409 662q-126 0 -213 -91.5t-87 -224.5t87 -224.5t213 -91.5
t213 91.5t87 224.5t-87 224.5t-213 91.5z" />
    <glyph glyph-name="macron" unicode="&#xaf;" horiz-adv-x="400"
d="M56 656h288v-59h-288v59z" />
    <glyph glyph-name="degree" unicode="&#xb0;" horiz-adv-x="350"
d="M313 542q0 -57 -41 -97.5t-97 -40.5q-57 0 -97.5 40.5t-40.5 97.5q-1 56 40 97t98 41q56 0 97 -41t41 -97zM174 632q-33 0 -57.5 -26t-23.5 -64q0 -38 24 -64t58 -26q33 0 57.5 26t24.5 64t-24.5 64t-58.5 26z" />
    <glyph glyph-name="plusminus" unicode="&#xb1;" horiz-adv-x="570"
d="M43 311v58h209v187h68v-187h207v-58h-207v-197h-68v197h-209zM43 0v58h484v-58h-484z" />
    <glyph glyph-name="twosuperior" unicode="&#xb2;" horiz-adv-x="380"
d="M321 272h-280l-9 10q12 80 133 163q80 55 80 137q0 31 -14 50.5t-41 19.5q-52 0 -69 -80q-4 -24 -26 -24q-17 0 -31 10.5t-14 25.5q0 37 38.5 66.5t104.5 29.5q65 0 101.5 -27.5t36.5 -81.5q0 -45 -30.5 -77t-102.5 -71q-71 -39 -91 -92h162q23 0 34.5 7.5t21.5 27.5
l23 -5z" />
    <glyph glyph-name="threesuperior" unicode="&#xb3;" horiz-adv-x="380"
d="M253 384q0 26 -8 44.5t-20.5 26t-22 10.5t-18.5 3q-18 0 -36.5 -3.5t-20.5 -3.5q-17 0 -17 23q0 24 17 24q2 0 20.5 -3.5t36.5 -3.5q28 0 41.5 22.5t13.5 53.5q0 16 -3.5 31t-17.5 29.5t-36 14.5q-46 0 -65 -75q-5 -18 -23 -18q-15 0 -28 10.5t-13 26.5q0 32 37.5 58
t96.5 26q54 0 94 -23.5t40 -75.5q0 -42 -27 -63.5t-61 -28.5v-2q35 -2 70.5 -27.5t35.5 -77.5q0 -57 -43 -87t-121 -30q-60 0 -99.5 22.5t-39.5 53.5q0 17 14.5 30.5t30.5 13.5q17 0 23 -20q23 -72 79 -72q70 0 70 91z" />
    <glyph glyph-name="acute" unicode="&#xb4;" horiz-adv-x="400"
d="M144 542l-15 20l119 120q40 41 64 41q12 0 25.5 -14.5t13.5 -28.5q0 -24 -56 -54z" />
    <glyph glyph-name="paragraph" unicode="&#xb6;" horiz-adv-x="555"
d="M291 692v-442h-16q-92 0 -151.5 61.5t-59.5 154.5q0 99 58.5 162.5t156.5 63.5h12zM434 620v-721h-172v26l74 9q15 2 21 10.5t6 29.5v718h166v-26l-68 -9q-15 -2 -21 -9t-6 -28z" />
    <glyph glyph-name="periodcentered" unicode="&#xb7;" horiz-adv-x="265"
d="M133 188q-28 0 -45.5 18t-17.5 45q0 28 17.5 46.5t45.5 18.5q29 0 46 -18.5t17 -46.5q-1 -28 -17.5 -45.5t-45.5 -17.5z" />
    <glyph glyph-name="cedilla" unicode="&#xb8;" horiz-adv-x="400"
d="M231 0h41l-32 -55q89 -12 89 -87q0 -27 -14 -46t-36 -27t-39.5 -11.5t-32.5 -3.5q-23 0 -44 3v26q88 0 88 56q0 51 -62 54l-4 7z" />
    <glyph glyph-name="onesuperior" unicode="&#xb9;" horiz-adv-x="380"
d="M307 272h-226v22l55 5q21 2 21 26v283q0 21 -15 24l-61 8v19l143 21l7 -4v-351q0 -24 22 -26l54 -5v-22z" />
    <glyph glyph-name="ordmasculine" unicode="&#xba;" horiz-adv-x="398"
d="M198 265q-81 0 -122 42t-41 120t41 120.5t122 42.5q82 0 123.5 -42t41.5 -121q0 -78 -41.5 -120t-123.5 -42zM118 427q3 -134 80 -134q79 0 82 134q-3 135 -82 135q-77 0 -80 -135z" />
    <glyph glyph-name="guillemotright" unicode="&#xbb;" horiz-adv-x="442"
d="M120 255l-79 163l20 17l150 -181q13 -15 0 -31l-150 -182l-20 16l79 164q9 19 0 34zM305 255l-79 163l20 17l150 -181q13 -15 0 -31l-150 -182l-20 16l79 164q9 19 0 34z" />
    <glyph glyph-name="onequarter" unicode="&#xbc;" horiz-adv-x="860"
d="M657 102h-168l-11 17q108 179 192 282h61v-266h64v-33h-64v-49q0 -24 22 -26l34 -5v-22h-196v22l45 5q21 2 21 26v49zM532 135h125v198h-2q-76 -114 -123 -198zM235 -27l-36 27l428 695l38 -24zM291 272h-226v22l55 5q21 2 21 26v283q0 21 -15 24l-61 8v19l143 21l7 -4
v-351q0 -24 22 -26l54 -5v-22z" />
    <glyph glyph-name="onehalf" unicode="&#xbd;" horiz-adv-x="860"
d="M208 -27l-36 27l428 695l38 -24zM284 272h-226v22l55 5q21 2 21 26v283q0 21 -15 24l-61 8v19l143 21l7 -4v-351q0 -24 22 -26l54 -5v-22zM780 0h-280l-9 10q12 80 133 163q80 55 80 137q0 31 -14 50.5t-41 19.5q-52 0 -69 -80q-4 -24 -26 -24q-17 0 -31 10.5t-14 25.5
q0 37 38.5 66.5t104.5 29.5q65 0 101.5 -27.5t36.5 -81.5q0 -45 -30.5 -77t-102.5 -71q-71 -39 -91 -92h162q23 0 34.5 7.5t21.5 27.5l23 -5z" />
    <glyph glyph-name="threequarters" unicode="&#xbe;" horiz-adv-x="860"
d="M670 102h-168l-11 17q108 179 192 282h61v-266h64v-33h-64v-49q0 -24 22 -26l34 -5v-22h-196v22l45 5q21 2 21 26v49zM263 -27l-36 27l428 695l38 -24zM545 135h125v198h-2q-76 -114 -123 -198zM267 384q0 26 -8 44.5t-20.5 26t-22 10.5t-18.5 3q-18 0 -36.5 -3.5
t-20.5 -3.5q-17 0 -17 23q0 24 17 24q2 0 20.5 -3.5t36.5 -3.5q28 0 41.5 22.5t13.5 53.5q0 16 -3.5 31t-17.5 29.5t-36 14.5q-46 0 -65 -75q-5 -18 -23 -18q-15 0 -28 10.5t-13 26.5q0 32 37.5 58t96.5 26q54 0 94 -23.5t40 -75.5q0 -42 -27 -63.5t-61 -28.5v-2
q35 -2 70.5 -27.5t35.5 -77.5q0 -57 -43 -87t-121 -30q-60 0 -99.5 22.5t-39.5 53.5q0 17 14.5 30.5t30.5 13.5q17 0 23 -20q23 -72 79 -72q70 0 70 91z" />
    <glyph glyph-name="questiondown" unicode="&#xbf;" horiz-adv-x="389"
d="M188 -217q-71 0 -114 34.5t-44 101.5q0 13 2 25t7 23t9 19t12 17t12 14t14.5 13.5t13.5 10.5t14 10l12 8q76 53 76 115q0 36 -23 54.5t-45 18.5q-16 0 -30 -4l-8 20q34 28 96 28q43 0 75 -26t32 -71q0 -33 -17.5 -57t-63.5 -60q-37 -28 -63 -71t-26 -87q0 -101 64 -101
q62 0 82 107q4 24 32 24q17 0 35 -12.5t18 -37.5q0 -14 -9 -32t-27 -37.5t-54 -32.5t-82 -14zM199 502q28 0 44.5 -17t17.5 -45q0 -27 -17 -45t-45 -18q-27 0 -44.5 18t-17.5 45t17 44.5t45 17.5z" />
    <glyph glyph-name="Agrave" unicode="&#xc0;" horiz-adv-x="635"
d="M650 0h-256v29l45 4q24 2 29.5 11.5t-2.5 31.5l-67 191h-224q-50 -156 -61 -193q-7 -20 -2 -29t27 -11l52 -5v-29h-220v29q46 2 61.5 14.5t31.5 54.5q25 64 108 298l105 296h74l212 -603q13 -38 27.5 -47t59.5 -13v-29zM387 305l-99 286h-3q-89 -262 -97 -286h199z
M409 764l-11 -22l-170 56q-35 11 -47.5 18.5t-13.5 21.5q-1 15 10 32.5t22 19.5q20 4 65 -27z" />
    <glyph glyph-name="Aacute" unicode="&#xc1;" horiz-adv-x="635"
d="M650 0h-256v29l45 4q24 2 29.5 11.5t-2.5 31.5l-67 191h-224q-50 -156 -61 -193q-7 -20 -2 -29t27 -11l52 -5v-29h-220v29q46 2 61.5 14.5t31.5 54.5q25 64 108 298l105 296h74l212 -603q13 -38 27.5 -47t59.5 -13v-29zM387 305l-99 286h-3q-89 -262 -97 -286h199z
M226 742l-11 22l145 99q45 31 65 27q11 -2 22 -19.5t10 -32.5q-1 -14 -13.5 -21.5t-47.5 -18.5z" />
    <glyph glyph-name="Acircumflex" unicode="&#xc2;" horiz-adv-x="635"
d="M650 0h-256v29l45 4q24 2 29.5 11.5t-2.5 31.5l-67 191h-224q-50 -156 -61 -193q-7 -20 -2 -29t27 -11l52 -5v-29h-220v29q46 2 61.5 14.5t31.5 54.5q25 64 108 298l105 296h74l212 -603q13 -38 27.5 -47t59.5 -13v-29zM387 305l-99 286h-3q-89 -262 -97 -286h199z
M471 738l-13 -21l-107 61q-26 14 -33 14t-33 -14l-107 -61l-13 21l116 114q26 24 37 24t37 -24z" />
    <glyph glyph-name="Atilde" unicode="&#xc3;" horiz-adv-x="635"
d="M650 0h-256v29l45 4q24 2 29.5 11.5t-2.5 31.5l-67 191h-224q-50 -156 -61 -193q-7 -20 -2 -29t27 -11l52 -5v-29h-220v29q46 2 61.5 14.5t31.5 54.5q25 64 108 298l105 296h74l212 -603q13 -38 27.5 -47t59.5 -13v-29zM387 305l-99 286h-3q-89 -262 -97 -286h199z
M475 842l20 -11q-25 -49 -47.5 -72t-56.5 -23q-19 0 -80 19q-55 19 -80 19q-24 0 -39.5 -11.5t-32.5 -39.5l-19 13q11 22 18 33.5t21 29.5t32 26.5t41 8.5q28 0 79 -19q59 -19 76 -19q20 0 33 9t35 37z" />
    <glyph glyph-name="Adieresis" unicode="&#xc4;" horiz-adv-x="635"
d="M650 0h-256v29l45 4q24 2 29.5 11.5t-2.5 31.5l-67 191h-224q-50 -156 -61 -193q-7 -20 -2 -29t27 -11l52 -5v-29h-220v29q46 2 61.5 14.5t31.5 54.5q25 64 108 298l105 296h74l212 -603q13 -38 27.5 -47t59.5 -13v-29zM387 305l-99 286h-3q-89 -262 -97 -286h199z
M214 732q-26 0 -42 16.5t-16 38.5t15.5 38t42.5 16t42.5 -16t15.5 -38t-15.5 -38.5t-42.5 -16.5zM422 732q-26 0 -42 16.5t-16 38.5t15.5 38t42.5 16t42.5 -16t15.5 -38t-15.5 -38.5t-42.5 -16.5z" />
    <glyph glyph-name="Aring" unicode="&#xc5;" horiz-adv-x="627"
d="M384 305l-99 286h-3q-89 -262 -97 -286h199zM362 760q0 68 -50 68t-50 -68t50 -68t50 68zM356 666l204 -577q13 -38 27.5 -47t59.5 -13v-29h-256v29l45 4q24 2 29.5 11.5t-2.5 31.5l-67 191h-224q-50 -156 -61 -193q-7 -20 -2 -29t27 -11l52 -5v-29h-220v29
q46 2 61.5 14.5t31.5 54.5q25 64 108 298l97 271q-62 19 -62 93q0 52 31 76.5t77 24.5t77 -24.5t31 -76.5q0 -74 -64 -94z" />
    <glyph glyph-name="AE" unicode="&#xc6;" horiz-adv-x="876"
d="M397 379v273h-6l-147 -273h153zM239 692h571v-164h-30q-11 79 -39 104t-112 25h-98q-24 0 -30.5 -6.5t-6.5 -29.5v-242h140q32 0 50 4t27.5 16.5t13 25t7.5 40.5h30v-211h-30q-4 29 -7.5 41t-13 25t-27.5 17t-50 4h-140v-216q0 -64 27 -77t102 -13q98 0 138 25t56 113h30
l-12 -173h-528v29q65 5 77.5 14t12.5 52v246h-172q-121 -232 -138 -277q-10 -25 15 -28l66 -7v-29h-231v29q42 4 58 12t33 36q24 41 50 88.5t61.5 114.5t63.5 118l123 225q18 33 -12 34l-75 6v29z" />
    <glyph glyph-name="Ccedilla" unicode="&#xc7;" horiz-adv-x="680"
d="M335 -84l39 71q-155 7 -231 83q-95 95 -95 271q0 161 91 263q92 103 282 103q128 0 212 -39v-156h-30q-26 160 -192 160q-67 0 -117 -27.5t-78.5 -75t-42 -104t-13.5 -121.5q0 -41 6 -81t23 -85t43.5 -79t72 -56.5t104.5 -22.5q92 0 139.5 46.5t70.5 133.5h30l-14 -167
q-37 -20 -99.5 -34t-122.5 -14l-23 -40q89 -12 89 -87q0 -27 -14 -46t-36 -27t-39.5 -11.5t-32.5 -3.5q-23 0 -44 3v26q88 0 88 56q0 51 -62 54z" />
    <glyph glyph-name="Egrave" unicode="&#xc8;" horiz-adv-x="606"
d="M35 692h505v-164h-30q-11 79 -39 104t-112 25h-98q-24 0 -30.5 -6t-6.5 -30v-242h140q32 0 50 4t27.5 16.5t13 25t7.5 40.5h30v-211h-30q-4 29 -7.5 41t-13 25t-27.5 17t-50 4h-140v-221q0 -38 5 -53t20 -22q26 -10 104 -10q100 0 138.5 25t55.5 113h30l-12 -173h-530v29
q66 4 78 13t12 51v506q0 42 -12 51t-78 13v29zM389 764l-11 -22l-170 56q-35 11 -47.5 18.5t-13.5 21.5q-1 15 10 32.5t22 19.5q20 4 65 -27z" />
    <glyph glyph-name="Eacute" unicode="&#xc9;" horiz-adv-x="606"
d="M35 692h505v-164h-30q-11 79 -39 104t-112 25h-98q-24 0 -30.5 -6t-6.5 -30v-242h140q32 0 50 4t27.5 16.5t13 25t7.5 40.5h30v-211h-30q-4 29 -7.5 41t-13 25t-27.5 17t-50 4h-140v-221q0 -38 5 -53t20 -22q26 -10 104 -10q100 0 138.5 25t55.5 113h30l-12 -173h-530v29
q66 4 78 13t12 51v506q0 42 -12 51t-78 13v29zM243 742l-11 22l145 99q45 31 65 27q11 -2 22 -19.5t10 -32.5q-1 -14 -13.5 -21.5t-47.5 -18.5z" />
    <glyph glyph-name="Ecircumflex" unicode="&#xca;" horiz-adv-x="606"
d="M35 692h505v-164h-30q-11 79 -39 104t-112 25h-98q-24 0 -30.5 -6t-6.5 -30v-242h140q32 0 50 4t27.5 16.5t13 25t7.5 40.5h30v-211h-30q-4 29 -7.5 41t-13 25t-27.5 17t-50 4h-140v-221q0 -38 5 -53t20 -22q26 -10 104 -10q100 0 138.5 25t55.5 113h30l-12 -173h-530v29
q66 4 78 13t12 51v506q0 42 -12 51t-78 13v29zM456 738l-13 -21l-107 61q-26 14 -33 14t-33 -14l-107 -61l-13 21l116 114q26 24 37 24t37 -24z" />
    <glyph glyph-name="Edieresis" unicode="&#xcb;" horiz-adv-x="606"
d="M35 692h505v-164h-30q-11 79 -39 104t-112 25h-98q-24 0 -30.5 -6t-6.5 -30v-242h140q32 0 50 4t27.5 16.5t13 25t7.5 40.5h30v-211h-30q-4 29 -7.5 41t-13 25t-27.5 17t-50 4h-140v-221q0 -38 5 -53t20 -22q26 -10 104 -10q100 0 138.5 25t55.5 113h30l-12 -173h-530v29
q66 4 78 13t12 51v506q0 42 -12 51t-78 13v29zM199 732q-26 0 -42 16.5t-16 38.5t15.5 38t42.5 16t42.5 -16t15.5 -38t-15.5 -38.5t-42.5 -16.5zM407 732q-26 0 -42 16.5t-16 38.5t15.5 38t42.5 16t42.5 -16t15.5 -38t-15.5 -38.5t-42.5 -16.5z" />
    <glyph glyph-name="Igrave" unicode="&#xcc;" horiz-adv-x="349"
d="M224 599v-506q0 -42 12.5 -50.5t77.5 -13.5v-29h-279v29q66 4 78 13t12 51v506q0 42 -12 51t-78 13v29h279v-29q-65 -5 -77.5 -13.5t-12.5 -50.5zM260 764l-11 -22l-170 56q-35 11 -47.5 18.5t-13.5 21.5q-1 15 10 32.5t22 19.5q20 4 65 -27z" />
    <glyph glyph-name="Iacute" unicode="&#xcd;" horiz-adv-x="349"
d="M224 599v-506q0 -42 12.5 -50.5t77.5 -13.5v-29h-279v29q66 4 78 13t12 51v506q0 42 -12 51t-78 13v29h279v-29q-65 -5 -77.5 -13.5t-12.5 -50.5zM100 742l-11 22l145 99q45 31 65 27q11 -2 22 -19.5t10 -32.5q-1 -14 -13.5 -21.5t-47.5 -18.5z" />
    <glyph glyph-name="Icircumflex" unicode="&#xce;" horiz-adv-x="349"
d="M224 599v-506q0 -42 12.5 -50.5t77.5 -13.5v-29h-279v29q66 4 78 13t12 51v506q0 42 -12 51t-78 13v29h279v-29q-65 -5 -77.5 -13.5t-12.5 -50.5zM328 738l-13 -21l-107 61q-26 14 -33 14t-33 -14l-107 -61l-13 21l116 114q26 24 37 24t37 -24z" />
    <glyph glyph-name="Idieresis" unicode="&#xcf;" horiz-adv-x="349"
d="M224 599v-506q0 -42 12.5 -50.5t77.5 -13.5v-29h-279v29q66 4 78 13t12 51v506q0 42 -12 51t-78 13v29h279v-29q-65 -5 -77.5 -13.5t-12.5 -50.5zM71 732q-26 0 -42 16.5t-16 38.5t15.5 38t42.5 16t42.5 -16t15.5 -38t-15.5 -38.5t-42.5 -16.5zM279 732q-26 0 -42 16.5
t-16 38.5t15.5 38t42.5 16t42.5 -16t15.5 -38t-15.5 -38.5t-42.5 -16.5z" />
    <glyph glyph-name="Eth" unicode="&#xd0;" horiz-adv-x="785"
d="M368 341h-138v-216q0 -58 19 -74t85 -16q67 0 117 15t91 49.5t62 98.5t21 156q0 298 -279 303q-80 0 -98 -9t-18 -48v-221h138v-38zM131 341h-111v38h111v220q0 42 -12 51t-78 13v29h332q183 -2 274 -87q90 -87 90 -247q0 -204 -130 -294q-93 -64 -254 -64h-312v29
q66 4 78 13t12 51v248z" />
    <glyph glyph-name="Ntilde" unicode="&#xd1;" horiz-adv-x="780"
d="M34 692h192l390 -552l2 -2v351q0 78 -7 124q-4 29 -22.5 37.5t-72.5 12.5v29h237v-29q-44 -3 -61 -12t-21 -38q-7 -46 -7 -124v-489h-66l-426 602h-2v-399q0 -78 7 -124q4 -29 22.5 -37.5t72.5 -12.5v-29h-237v29q44 3 61 12t21 38q7 46 7 124v396q0 42 -12 51t-78 13v29
zM553 842l20 -11q-25 -49 -47.5 -72t-56.5 -23q-19 0 -80 19q-55 19 -80 19q-24 0 -39.5 -11.5t-32.5 -39.5l-19 13q11 22 18 33.5t21 29.5t32 26.5t41 8.5q28 0 79 -19q59 -19 76 -19q20 0 33 9t35 37z" />
    <glyph glyph-name="Ograve" unicode="&#xd2;" horiz-adv-x="762"
d="M381 672q-51 0 -91 -20t-63.5 -52t-39 -76.5t-21 -87t-6.5 -90.5q1 -48 6.5 -90.5t21 -87t39 -76.5t63.5 -52t91 -20t91 20t63.5 52t39 76.5t21 87t6.5 90.5q-1 48 -6.5 90.5t-21 87t-39 76.5t-63.5 52t-91 20zM381 707q162 0 248 -97q85 -93 85 -264t-85 -264
q-86 -97 -248 -97t-248 97q-85 94 -85 264t85 264q86 97 248 97zM455 764l-11 -22l-170 56q-35 11 -47.5 18.5t-13.5 21.5q-1 15 10 32.5t22 19.5q20 4 65 -27z" />
    <glyph glyph-name="Oacute" unicode="&#xd3;" horiz-adv-x="762"
d="M381 672q-51 0 -91 -20t-63.5 -52t-39 -76.5t-21 -87t-6.5 -90.5q1 -48 6.5 -90.5t21 -87t39 -76.5t63.5 -52t91 -20t91 20t63.5 52t39 76.5t21 87t6.5 90.5q-1 48 -6.5 90.5t-21 87t-39 76.5t-63.5 52t-91 20zM381 707q162 0 248 -97q85 -93 85 -264t-85 -264
q-86 -97 -248 -97t-248 97q-85 94 -85 264t85 264q86 97 248 97zM293 742l-11 22l145 99q45 31 65 27q11 -2 22 -19.5t10 -32.5q-1 -14 -13.5 -21.5t-47.5 -18.5z" />
    <glyph glyph-name="Ocircumflex" unicode="&#xd4;" horiz-adv-x="762"
d="M381 672q-51 0 -91 -20t-63.5 -52t-39 -76.5t-21 -87t-6.5 -90.5q1 -48 6.5 -90.5t21 -87t39 -76.5t63.5 -52t91 -20t91 20t63.5 52t39 76.5t21 87t6.5 90.5q-1 48 -6.5 90.5t-21 87t-39 76.5t-63.5 52t-91 20zM381 707q162 0 248 -97q85 -93 85 -264t-85 -264
q-86 -97 -248 -97t-248 97q-85 94 -85 264t85 264q86 97 248 97zM534 738l-13 -21l-107 61q-26 14 -33 14t-33 -14l-107 -61l-13 21l116 114q26 24 37 24t37 -24z" />
    <glyph glyph-name="Otilde" unicode="&#xd5;" horiz-adv-x="762"
d="M381 672q-51 0 -91 -20t-63.5 -52t-39 -76.5t-21 -87t-6.5 -90.5q1 -48 6.5 -90.5t21 -87t39 -76.5t63.5 -52t91 -20t91 20t63.5 52t39 76.5t21 87t6.5 90.5q-1 48 -6.5 90.5t-21 87t-39 76.5t-63.5 52t-91 20zM381 707q162 0 248 -97q85 -93 85 -264t-85 -264
q-86 -97 -248 -97t-248 97q-85 94 -85 264t85 264q86 97 248 97zM538 842l20 -11q-25 -49 -47.5 -72t-56.5 -23q-19 0 -80 19q-55 19 -80 19q-24 0 -39.5 -11.5t-32.5 -39.5l-19 13q11 22 18 33.5t21 29.5t32 26.5t41 8.5q28 0 79 -19q59 -19 76 -19q20 0 33 9t35 37z" />
    <glyph glyph-name="Odieresis" unicode="&#xd6;" horiz-adv-x="762"
d="M381 672q-51 0 -91 -20t-63.5 -52t-39 -76.5t-21 -87t-6.5 -90.5q1 -48 6.5 -90.5t21 -87t39 -76.5t63.5 -52t91 -20t91 20t63.5 52t39 76.5t21 87t6.5 90.5q-1 48 -6.5 90.5t-21 87t-39 76.5t-63.5 52t-91 20zM381 707q162 0 248 -97q85 -93 85 -264t-85 -264
q-86 -97 -248 -97t-248 97q-85 94 -85 264t85 264q86 97 248 97zM277 732q-26 0 -42 16.5t-16 38.5t15.5 38t42.5 16t42.5 -16t15.5 -38t-15.5 -38.5t-42.5 -16.5zM485 732q-26 0 -42 16.5t-16 38.5t15.5 38t42.5 16t42.5 -16t15.5 -38t-15.5 -38.5t-42.5 -16.5z" />
    <glyph glyph-name="multiply" unicode="&#xd7;" horiz-adv-x="570"
d="M507 432l-179 -182l179 -184l-42 -44l-180 184l-181 -184l-41 44l179 184l-179 182l41 46l181 -184l180 184z" />
    <glyph glyph-name="Oslash" unicode="&#xd8;" horiz-adv-x="762"
d="M211 117l314 495q-54 60 -144 60q-51 0 -91 -20t-63.5 -52t-39 -76.5t-21 -87t-6.5 -90.5q2 -145 51 -229zM639 718l-47 -74q17 -12 37 -34q85 -93 85 -264t-85 -264q-86 -97 -248 -97q-106 0 -179 43l-51 -81l-32 24l49 78q-15 11 -35 33q-85 94 -85 264t85 264
q86 97 248 97q106 0 178 -42l46 74zM550 577l-314 -495q54 -62 145 -62q51 0 91 20t63.5 52t39 76.5t21 87t6.5 90.5q-2 149 -52 231z" />
    <glyph glyph-name="Ugrave" unicode="&#xd9;" horiz-adv-x="791"
d="M483 692h279v-29q-65 -5 -77.5 -13.5t-12.5 -50.5v-344q0 -92 -27 -148q-57 -122 -250 -122q-192 0 -249 122q-25 51 -27 146v346q0 42 -12 51t-78 13v29h279v-29q-65 -5 -77.5 -13.5t-12.5 -50.5v-324q0 -135 45 -195q47 -60 132 -60q86 0 133 60q45 60 45 195v324
q0 42 -12 51t-78 13v29zM457 764l-11 -22l-170 56q-35 11 -47.5 18.5t-13.5 21.5q-1 15 10 32.5t22 19.5q20 4 65 -27z" />
    <glyph glyph-name="Uacute" unicode="&#xda;" horiz-adv-x="791"
d="M483 692h279v-29q-65 -5 -77.5 -13.5t-12.5 -50.5v-344q0 -92 -27 -148q-57 -122 -250 -122q-192 0 -249 122q-25 51 -27 146v346q0 42 -12 51t-78 13v29h279v-29q-65 -5 -77.5 -13.5t-12.5 -50.5v-324q0 -135 45 -195q47 -60 132 -60q86 0 133 60q45 60 45 195v324
q0 42 -12 51t-78 13v29zM318 742l-11 22l145 99q45 31 65 27q11 -2 22 -19.5t10 -32.5q-1 -14 -13.5 -21.5t-47.5 -18.5z" />
    <glyph glyph-name="Ucircumflex" unicode="&#xdb;" horiz-adv-x="791"
d="M483 692h279v-29q-65 -5 -77.5 -13.5t-12.5 -50.5v-344q0 -92 -27 -148q-57 -122 -250 -122q-192 0 -249 122q-25 51 -27 146v346q0 42 -12 51t-78 13v29h279v-29q-65 -5 -77.5 -13.5t-12.5 -50.5v-324q0 -135 45 -195q47 -60 132 -60q86 0 133 60q45 60 45 195v324
q0 42 -12 51t-78 13v29zM549 738l-13 -21l-107 61q-26 14 -33 14t-33 -14l-107 -61l-13 21l116 114q26 24 37 24t37 -24z" />
    <glyph glyph-name="Udieresis" unicode="&#xdc;" horiz-adv-x="791"
d="M483 692h279v-29q-65 -5 -77.5 -13.5t-12.5 -50.5v-344q0 -92 -27 -148q-57 -122 -250 -122q-192 0 -249 122q-25 51 -27 146v346q0 42 -12 51t-78 13v29h279v-29q-65 -5 -77.5 -13.5t-12.5 -50.5v-324q0 -135 45 -195q47 -60 132 -60q86 0 133 60q45 60 45 195v324
q0 42 -12 51t-78 13v29zM292 732q-26 0 -42 16.5t-16 38.5t15.5 38t42.5 16t42.5 -16t15.5 -38t-15.5 -38.5t-42.5 -16.5zM500 732q-26 0 -42 16.5t-16 38.5t15.5 38t42.5 16t42.5 -16t15.5 -38t-15.5 -38.5t-42.5 -16.5z" />
    <glyph glyph-name="Yacute" unicode="&#xdd;" horiz-adv-x="588"
d="M461 0h-311v29q77 4 91.5 13t14.5 51v149q0 29 -15 58q-63 127 -164 313q-16 31 -32 39.5t-57 10.5v29h259v-29l-59 -6q-23 -3 -11 -30q62 -136 154 -302h2q113 221 146 301q12 29 -12 32l-54 5v29h219v-29q-49 -2 -64.5 -12.5t-42.5 -53.5q-57 -92 -157 -292
q-13 -26 -13 -59v-153q0 -42 14.5 -51t91.5 -13v-29zM264 742l-11 22l145 99q45 31 65 27q11 -2 22 -19.5t10 -32.5q-1 -14 -13.5 -21.5t-47.5 -18.5z" />
    <glyph glyph-name="Thorn" unicode="&#xde;" horiz-adv-x="593"
d="M224 599v-46h81q118 0 176 -36q75 -47 75 -142q0 -43 -14.5 -77t-38.5 -55.5t-57.5 -35.5t-68.5 -19.5t-75 -5.5h-78v-89q0 -42 13.5 -51t84.5 -13v-29h-287v29q66 4 78 13t12 51v506q0 42 -12 51t-78 13v29h279v-29q-65 -5 -77.5 -13.5t-12.5 -50.5zM224 481v-223
q0 -23 11 -32t48 -9q82 0 124 35t42 117q0 71 -40 110t-112 39q-45 0 -59 -6.5t-14 -30.5z" />
    <glyph glyph-name="germandbls" unicode="&#xdf;" horiz-adv-x="601"
d="M191 448v-361q0 -38 10.5 -46t64.5 -12v-29h-244v29q54 4 64.5 12t10.5 46v368q0 156 56 219q58 68 169 68q60 0 102 -17.5t60 -45.5t24.5 -49.5t6.5 -41.5q0 -46 -27 -81q-55 -8 -86 -32.5t-31 -64.5q0 -33 22 -58.5t79 -64.5q101 -68 101 -159q0 -63 -43.5 -101.5
t-115.5 -38.5q-54 0 -90 19.5t-36 45.5q0 15 11.5 26.5t25.5 11.5q15 0 23 -15q30 -53 78 -53q25 0 45.5 18.5t20.5 54.5q0 43 -22.5 73t-69.5 61q-52 35 -81 69t-29 80q0 103 117 135q22 23 22 72q0 53 -31.5 87t-79.5 34q-75 0 -106 -78q-21 -52 -21 -181z" />
    <glyph glyph-name="agrave" unicode="&#xe0;" horiz-adv-x="523"
d="M343 143v141q-19 -12 -115 -48q-42 -16 -60 -36.5t-18 -55.5q0 -46 23.5 -74.5t68.5 -28.5q38 0 69.5 24t31.5 78zM433 369v-242q0 -78 35 -86q21 -6 51 1l6 -24q-60 -30 -118 -30q-25 0 -39 15t-26 45q-88 -58 -149 -60q-67 0 -105.5 41t-38.5 101q0 91 93 119
q15 5 47.5 14.5t51 15.5t42.5 14.5t38.5 16.5t21.5 15v42q0 54 -25 77t-60 23q-74 0 -103 -98q-8 -28 -32 -28q-18 0 -37 12.5t-19 34.5q0 43 60 78.5t142 35.5q54 0 89 -12t50 -33.5t20 -41t5 -46.5zM333 562l-15 -20l-151 84q-56 30 -56 54q0 14 13.5 28.5t25.5 14.5
q24 0 64 -41z" />
    <glyph glyph-name="aacute" unicode="&#xe1;" horiz-adv-x="523"
d="M343 143v141q-19 -12 -115 -48q-42 -16 -60 -36.5t-18 -55.5q0 -46 23.5 -74.5t68.5 -28.5q38 0 69.5 24t31.5 78zM433 369v-242q0 -78 35 -86q21 -6 51 1l6 -24q-60 -30 -118 -30q-25 0 -39 15t-26 45q-88 -58 -149 -60q-67 0 -105.5 41t-38.5 101q0 91 93 119
q15 5 47.5 14.5t51 15.5t42.5 14.5t38.5 16.5t21.5 15v42q0 54 -25 77t-60 23q-74 0 -103 -98q-8 -28 -32 -28q-18 0 -37 12.5t-19 34.5q0 43 60 78.5t142 35.5q54 0 89 -12t50 -33.5t20 -41t5 -46.5zM211 542l-15 20l119 120q40 41 64 41q12 0 25.5 -14.5t13.5 -28.5
q0 -24 -56 -54z" />
    <glyph glyph-name="acircumflex" unicode="&#xe2;" horiz-adv-x="523"
d="M343 143v141q-19 -12 -115 -48q-42 -16 -60 -36.5t-18 -55.5q0 -46 23.5 -74.5t68.5 -28.5q38 0 69.5 24t31.5 78zM433 369v-242q0 -78 35 -86q21 -6 51 1l6 -24q-60 -30 -118 -30q-25 0 -39 15t-26 45q-88 -58 -149 -60q-67 0 -105.5 41t-38.5 101q0 91 93 119
q15 5 47.5 14.5t51 15.5t42.5 14.5t38.5 16.5t21.5 15v42q0 54 -25 77t-60 23q-74 0 -103 -98q-8 -28 -32 -28q-18 0 -37 12.5t-19 34.5q0 43 60 78.5t142 35.5q54 0 89 -12t50 -33.5t20 -41t5 -46.5zM413 562l-19 -21l-103 77q-21 15 -31 15t-31 -15l-103 -77l-19 21
l117 133q23 25 36 25t36 -25z" />
    <glyph glyph-name="atilde" unicode="&#xe3;" horiz-adv-x="523"
d="M343 143v141q-19 -12 -115 -48q-42 -16 -60 -36.5t-18 -55.5q0 -46 23.5 -74.5t68.5 -28.5q38 0 69.5 24t31.5 78zM433 369v-242q0 -78 35 -86q21 -6 51 1l6 -24q-60 -30 -118 -30q-25 0 -39 15t-26 45q-88 -58 -149 -60q-67 0 -105.5 41t-38.5 101q0 91 93 119
q15 5 47.5 14.5t51 15.5t42.5 14.5t38.5 16.5t21.5 15v42q0 54 -25 77t-60 23q-74 0 -103 -98q-8 -28 -32 -28q-18 0 -37 12.5t-19 34.5q0 43 60 78.5t142 35.5q54 0 89 -12t50 -33.5t20 -41t5 -46.5zM419 682l20 -11q-24 -47 -44 -69q-28 -26 -60 -26q-19 0 -80 19
q-55 19 -80 19q-24 0 -39.5 -11.5t-32.5 -39.5l-19 13q11 22 18 33.5t21 29.5t32 26.5t41 8.5q28 0 79 -19q59 -19 76 -19q20 0 33 9t35 37z" />
    <glyph glyph-name="adieresis" unicode="&#xe4;" horiz-adv-x="523"
d="M343 143v141q-19 -12 -115 -48q-42 -16 -60 -36.5t-18 -55.5q0 -46 23.5 -74.5t68.5 -28.5q38 0 69.5 24t31.5 78zM433 369v-242q0 -78 35 -86q21 -6 51 1l6 -24q-60 -30 -118 -30q-25 0 -39 15t-26 45q-88 -58 -149 -60q-67 0 -105.5 41t-38.5 101q0 91 93 119
q15 5 47.5 14.5t51 15.5t42.5 14.5t38.5 16.5t21.5 15v42q0 54 -25 77t-60 23q-74 0 -103 -98q-8 -28 -32 -28q-18 0 -37 12.5t-19 34.5q0 43 60 78.5t142 35.5q54 0 89 -12t50 -33.5t20 -41t5 -46.5zM158 570q-28 0 -44 17t-16 40t16 39.5t44 16.5t44 -16.5t16 -39.5
t-16 -40t-44 -17zM366 570q-28 0 -44 17t-16 40t16 39.5t44 16.5t44 -16.5t16 -39.5t-16 -40t-44 -17z" />
    <glyph glyph-name="aring" unicode="&#xe5;" horiz-adv-x="523"
d="M343 143v141q-19 -12 -115 -48q-42 -16 -60 -36.5t-18 -55.5q0 -46 23.5 -74.5t68.5 -28.5q38 0 69.5 24t31.5 78zM433 369v-242q0 -78 35 -86q21 -6 51 1l6 -24q-60 -30 -118 -30q-25 0 -39 15t-26 45q-88 -58 -149 -60q-67 0 -105.5 41t-38.5 101q0 91 93 119
q15 5 47.5 14.5t51 15.5t42.5 14.5t38.5 16.5t21.5 15v42q0 54 -25 77t-60 23q-74 0 -103 -98q-8 -28 -32 -28q-18 0 -37 12.5t-19 34.5q0 43 60 78.5t142 35.5q54 0 89 -12t50 -33.5t20 -41t5 -46.5zM312 651q0 68 -50 68t-50 -68t50 -68t50 68zM262 752q46 0 77 -24.5
t31 -76.5t-31 -76.5t-77 -24.5t-77 24.5t-31 76.5t31 76.5t77 24.5z" />
    <glyph glyph-name="ae" unicode="&#xe6;" horiz-adv-x="797"
d="M343 143v141q-19 -12 -115 -48q-42 -16 -60 -36.5t-18 -55.5q0 -46 23.5 -74.5t68.5 -28.5q37 0 69 24.5t32 77.5zM724 263h-288q-4 -224 147 -224q54 0 87.5 28t57.5 78l30 -16q-48 -140 -195 -141q-134 -1 -185 87l-37 -27q-80 -58 -146 -60q-69 0 -107.5 41t-38.5 101
q0 91 93 119q15 5 47.5 14.5t51 15.5t42.5 14.5t38.5 16.5t21.5 15v44q0 53 -25 75.5t-59 22.5q-76 0 -105 -98q-8 -28 -30 -28q-19 0 -38.5 12.5t-19.5 34.5q0 43 60 78.5t144 35.5q102 0 139 -62q57 62 153 62q52 0 91 -15.5t59.5 -37.5t33 -52t15.5 -52t3 -44
q0 -38 -40 -38zM437 301h189q20 0 27 8t7 24q0 14 -1.5 29t-8 35t-17.5 34.5t-31 25t-46 10.5q-36 0 -61.5 -19.5t-37 -49t-16 -53.5t-4.5 -44z" />
    <glyph glyph-name="ccedilla" unicode="&#xe7;" horiz-adv-x="496"
d="M221 -84l40 74q-103 5 -157.5 68t-54.5 182q0 53 13 97.5t40 82.5t75.5 60t114.5 22q77 0 125.5 -30t48.5 -67q0 -25 -20 -38t-40 -13q-21 0 -31 26q-32 87 -94 87q-56 0 -92 -51.5t-36 -157.5q0 -39 6.5 -74.5t22 -69.5t46 -54t72.5 -20q53 0 86.5 26t57.5 80l29 -14
q-17 -67 -65.5 -102t-105.5 -40l-26 -45q89 -12 89 -87q0 -27 -14 -46t-36 -27t-39.5 -11.5t-32.5 -3.5q-23 0 -44 3v26q88 0 88 56q0 51 -62 54z" />
    <glyph glyph-name="egrave" unicode="&#xe8;" horiz-adv-x="514"
d="M441 263h-288q-4 -224 147 -224q54 0 87.5 28t57.5 78l30 -16q-48 -140 -195 -141q-119 -1 -175 64.5t-56 188.5q0 118 58.5 189.5t171.5 71.5q52 0 91 -15.5t59.5 -37.5t33 -52t15.5 -52t3 -44q0 -38 -40 -38zM154 301h189q20 0 27 8t7 24q0 14 -1.5 29t-8 35
t-17.5 34.5t-31 25t-46 10.5q-36 0 -62 -19.5t-37 -49t-15.5 -53.5t-4.5 -44zM343 562l-15 -20l-151 84q-56 30 -56 54q0 14 13.5 28.5t25.5 14.5q24 0 64 -41z" />
    <glyph glyph-name="eacute" unicode="&#xe9;" horiz-adv-x="514"
d="M441 263h-288q-4 -224 147 -224q54 0 87.5 28t57.5 78l30 -16q-48 -140 -195 -141q-119 -1 -175 64.5t-56 188.5q0 118 58.5 189.5t171.5 71.5q52 0 91 -15.5t59.5 -37.5t33 -52t15.5 -52t3 -44q0 -38 -40 -38zM154 301h189q20 0 27 8t7 24q0 14 -1.5 29t-8 35
t-17.5 34.5t-31 25t-46 10.5q-36 0 -62 -19.5t-37 -49t-15.5 -53.5t-4.5 -44zM216 542l-15 20l119 120q40 41 64 41q12 0 25.5 -14.5t13.5 -28.5q0 -24 -56 -54z" />
    <glyph glyph-name="ecircumflex" unicode="&#xea;" horiz-adv-x="514"
d="M441 263h-288q-4 -224 147 -224q54 0 87.5 28t57.5 78l30 -16q-48 -140 -195 -141q-119 -1 -175 64.5t-56 188.5q0 118 58.5 189.5t171.5 71.5q52 0 91 -15.5t59.5 -37.5t33 -52t15.5 -52t3 -44q0 -38 -40 -38zM154 301h189q20 0 27 8t7 24q0 14 -1.5 29t-8 35
t-17.5 34.5t-31 25t-46 10.5q-36 0 -62 -19.5t-37 -49t-15.5 -53.5t-4.5 -44zM426 562l-19 -21l-103 77q-21 15 -31 15t-31 -15l-103 -77l-19 21l117 133q23 25 36 25t36 -25z" />
    <glyph glyph-name="edieresis" unicode="&#xeb;" horiz-adv-x="514"
d="M441 263h-288q-4 -224 147 -224q54 0 87.5 28t57.5 78l30 -16q-48 -140 -195 -141q-119 -1 -175 64.5t-56 188.5q0 118 58.5 189.5t171.5 71.5q52 0 91 -15.5t59.5 -37.5t33 -52t15.5 -52t3 -44q0 -38 -40 -38zM154 301h189q20 0 27 8t7 24q0 14 -1.5 29t-8 35
t-17.5 34.5t-31 25t-46 10.5q-36 0 -62 -19.5t-37 -49t-15.5 -53.5t-4.5 -44zM153 570q-28 0 -44 17t-16 40t16 39.5t44 16.5t44 -16.5t16 -39.5t-16 -40t-44 -17zM361 570q-28 0 -44 17t-16 40t16 39.5t44 16.5t44 -16.5t16 -39.5t-16 -40t-44 -17z" />
    <glyph glyph-name="igrave" unicode="&#xec;" horiz-adv-x="291"
d="M37 477l157 25l7 -6v-409q0 -38 10.5 -46t64.5 -12v-29h-244v29q54 4 64.5 12t10.5 46v315q0 26 -6 34t-26 11l-38 5v25zM227 562l-15 -20l-151 84q-56 30 -56 54q0 14 13.5 28.5t25.5 14.5q24 0 64 -41z" />
    <glyph glyph-name="iacute" unicode="&#xed;" horiz-adv-x="291"
d="M37 477l157 25l7 -6v-409q0 -38 10.5 -46t64.5 -12v-29h-244v29q54 4 64.5 12t10.5 46v315q0 26 -6 34t-26 11l-38 5v25zM70 542l-15 20l119 120q40 41 64 41q12 0 25.5 -14.5t13.5 -28.5q0 -24 -56 -54z" />
    <glyph glyph-name="icircumflex" unicode="&#xee;" horiz-adv-x="291"
d="M37 477l157 25l7 -6v-409q0 -38 10.5 -46t64.5 -12v-29h-244v29q54 4 64.5 12t10.5 46v315q0 26 -6 34t-26 11l-38 5v25zM304 562l-19 -21l-103 77q-21 15 -31 15t-31 -15l-103 -77l-20 21l118 133q23 25 36 25t36 -25z" />
    <glyph glyph-name="idieresis" unicode="&#xef;" horiz-adv-x="291"
d="M37 477l157 25l7 -6v-409q0 -38 10.5 -46t64.5 -12v-29h-244v29q54 4 64.5 12t10.5 46v315q0 26 -6 34t-26 11l-38 5v25zM42 570q-28 0 -44.5 17t-16.5 40t16.5 39.5t44.5 16.5t44 -16.5t16 -39.5t-16 -40t-44 -17zM250 570q-28 0 -44 17t-16 40t16 39.5t44 16.5
t44 -16.5t16 -39.5t-16 -40t-44 -17z" />
    <glyph glyph-name="eth" unicode="&#xf0;" horiz-adv-x="577"
d="M153 245q0 -222 134 -222q74 0 105.5 57.5t31.5 164.5q0 118 -29 170t-108 52q-134 0 -134 -222zM446 677l-119 -54q58 -47 95 -92q57 -68 81.5 -131t24.5 -145q0 -267 -241 -267q-117 0 -177.5 67.5t-60.5 189.5t61.5 189.5t181.5 67.5q18 0 52 -6l2 3q-34 47 -84 95
l-130 -59l-25 36l122 54q-42 38 -112 91v9l43 17q72 -43 130 -90l131 61z" />
    <glyph glyph-name="ntilde" unicode="&#xf1;" horiz-adv-x="619"
d="M529 343v-256q0 -38 10.5 -46t64.5 -12v-29h-244v29q54 4 64.5 12t10.5 46v236q0 125 -105 125q-38 0 -70 -20.5t-49 -51.5q-10 -20 -10 -55v-234q0 -38 10.5 -46t64.5 -12v-29h-244v29q54 4 64.5 12t10.5 46v315q0 26 -6 34t-26 11l-38 5v25l149 25l14 -76q4 3 25 16.5
t26 16.5t22.5 13t26 13t24 8.5t29.5 7t29 1.5q69 0 108 -42t39 -117zM467 682l20 -11q-24 -47 -44 -69q-28 -26 -60 -26q-19 0 -80 19q-55 19 -80 19q-24 0 -39.5 -11.5t-32.5 -39.5l-19 13q11 22 18 33.5t21 29.5t32 26.5t41 8.5q28 0 79 -19q59 -19 76 -19q20 0 33 9
t35 37z" />
    <glyph glyph-name="ograve" unicode="&#xf2;" horiz-adv-x="577"
d="M288 502q120 0 180 -66.5t60 -190.5t-60 -190.5t-180 -66.5q-118 0 -178.5 67t-60.5 190t60.5 190t178.5 67zM153 245q0 -106 34 -164t101 -58q68 0 102 58t34 164t-34 164t-102 58q-67 0 -101 -58t-34 -164zM350 562l-15 -20l-151 84q-56 30 -56 54q0 14 13.5 28.5
t25.5 14.5q24 0 64 -41z" />
    <glyph glyph-name="oacute" unicode="&#xf3;" horiz-adv-x="577"
d="M288 502q120 0 180 -66.5t60 -190.5t-60 -190.5t-180 -66.5q-118 0 -178.5 67t-60.5 190t60.5 190t178.5 67zM153 245q0 -106 34 -164t101 -58q68 0 102 58t34 164t-34 164t-102 58q-67 0 -101 -58t-34 -164zM223 542l-15 20l119 120q40 41 64 41q12 0 25.5 -14.5
t13.5 -28.5q0 -24 -56 -54z" />
    <glyph glyph-name="ocircumflex" unicode="&#xf4;" horiz-adv-x="577"
d="M288 502q120 0 180 -66.5t60 -190.5t-60 -190.5t-180 -66.5q-118 0 -178.5 67t-60.5 190t60.5 190t178.5 67zM153 245q0 -106 34 -164t101 -58q68 0 102 58t34 164t-34 164t-102 58q-67 0 -101 -58t-34 -164zM442 562l-19 -21l-103 77q-21 15 -31 15t-31 -15l-103 -77
l-19 21l117 133q23 25 36 25t36 -25z" />
    <glyph glyph-name="otilde" unicode="&#xf5;" horiz-adv-x="577"
d="M288 502q120 0 180 -66.5t60 -190.5t-60 -190.5t-180 -66.5q-118 0 -178.5 67t-60.5 190t60.5 190t178.5 67zM153 245q0 -106 34 -164t101 -58q68 0 102 58t34 164t-34 164t-102 58q-67 0 -101 -58t-34 -164zM446 682l20 -11q-24 -47 -44 -69q-28 -26 -60 -26
q-19 0 -80 19q-55 19 -80 19q-24 0 -39.5 -11.5t-32.5 -39.5l-19 13q11 22 18 33.5t21 29.5t32 26.5t41 8.5q28 0 79 -19q59 -19 76 -19q20 0 33 9t35 37z" />
    <glyph glyph-name="odieresis" unicode="&#xf6;" horiz-adv-x="577"
d="M288 502q120 0 180 -66.5t60 -190.5t-60 -190.5t-180 -66.5q-118 0 -178.5 67t-60.5 190t60.5 190t178.5 67zM153 245q0 -106 34 -164t101 -58q68 0 102 58t34 164t-34 164t-102 58q-67 0 -101 -58t-34 -164zM185 570q-28 0 -44 17t-16 40t16 39.5t44 16.5t44 -16.5
t16 -39.5t-16 -40t-44 -17zM393 570q-28 0 -44 17t-16 40t16 39.5t44 16.5t44 -16.5t16 -39.5t-16 -40t-44 -17z" />
    <glyph glyph-name="divide" unicode="&#xf7;" horiz-adv-x="570"
d="M285 356q-25 0 -42.5 17t-17.5 43q0 24 17.5 41t42.5 17q24 0 40.5 -17t16.5 -41q0 -25 -16.5 -42.5t-40.5 -17.5zM285 26q-25 0 -42.5 17t-17.5 43q0 24 17.5 41t42.5 17q24 0 40.5 -17t16.5 -41q0 -25 -16.5 -42.5t-40.5 -17.5zM43 221v58h484v-58h-484z" />
    <glyph glyph-name="oslash" unicode="&#xf8;" horiz-adv-x="577"
d="M172 104l205 327q-33 36 -89 36q-70 0 -106 -58.5t-34 -163.5q0 -90 24 -141zM401 397l-207 -331q36 -43 94 -43q141 0 141 222q0 99 -28 152zM472 511l-32 -51q88 -63 88 -215q0 -124 -60 -190.5t-180 -66.5q-76 0 -125 28l-36 -57l-31 23l34 55q-81 63 -81 208
q0 123 60.5 190t178.5 67q68 0 119 -23l33 53z" />
    <glyph glyph-name="ugrave" unicode="&#xf9;" horiz-adv-x="606"
d="M591 0h-160l-10 60q-1 -1 -37 -23t-72 -35.5t-74 -13.5q-63 0 -102.5 35t-39.5 115v264q0 26 -6 34t-26 11l-38 5v25l157 25l7 -6v-340q0 -56 27.5 -85t73.5 -29q39 0 72.5 20.5t50.5 54.5q8 16 8 60v225q0 26 -6 34t-26 11l-38 5v25l157 25l7 -6v-409q0 -38 11 -46
t64 -12v-29zM344 562l-15 -20l-151 84q-56 30 -56 54q0 14 13.5 28.5t25.5 14.5q24 0 64 -41z" />
    <glyph glyph-name="uacute" unicode="&#xfa;" horiz-adv-x="606"
d="M591 0h-160l-10 60q-1 -1 -37 -23t-72 -35.5t-74 -13.5q-63 0 -102.5 35t-39.5 115v264q0 26 -6 34t-26 11l-38 5v25l157 25l7 -6v-340q0 -56 27.5 -85t73.5 -29q39 0 72.5 20.5t50.5 54.5q8 16 8 60v225q0 26 -6 34t-26 11l-38 5v25l157 25l7 -6v-409q0 -38 11 -46
t64 -12v-29zM247 542l-15 20l119 120q40 41 64 41q12 0 25.5 -14.5t13.5 -28.5q0 -24 -56 -54z" />
    <glyph glyph-name="ucircumflex" unicode="&#xfb;" horiz-adv-x="606"
d="M591 0h-160l-10 60q-1 -1 -37 -23t-72 -35.5t-74 -13.5q-63 0 -102.5 35t-39.5 115v264q0 26 -6 34t-26 11l-38 5v25l157 25l7 -6v-340q0 -56 27.5 -85t73.5 -29q39 0 72.5 20.5t50.5 54.5q8 16 8 60v225q0 26 -6 34t-26 11l-38 5v25l157 25l7 -6v-409q0 -38 11 -46
t64 -12v-29zM452 562l-19 -21l-103 77q-21 15 -31 15t-31 -15l-103 -77l-19 21l117 133q23 25 36 25t36 -25z" />
    <glyph glyph-name="udieresis" unicode="&#xfc;" horiz-adv-x="606"
d="M591 0h-160l-10 60q-1 -1 -37 -23t-72 -35.5t-74 -13.5q-63 0 -102.5 35t-39.5 115v264q0 26 -6 34t-26 11l-38 5v25l157 25l7 -6v-340q0 -56 27.5 -85t73.5 -29q39 0 72.5 20.5t50.5 54.5q8 16 8 60v225q0 26 -6 34t-26 11l-38 5v25l157 25l7 -6v-409q0 -38 11 -46
t64 -12v-29zM199 570q-28 0 -44 17t-16 40t16 39.5t44 16.5t44 -16.5t16 -39.5t-16 -40t-44 -17zM407 570q-28 0 -44 17t-16 40t16 39.5t44 16.5t44 -16.5t16 -39.5t-16 -40t-44 -17z" />
    <glyph glyph-name="yacute" unicode="&#xfd;" horiz-adv-x="506"
d="M-5 490h229v-29l-43 -4q-16 -1 -18.5 -9.5t3.5 -21.5l123 -335h2q89 242 111 331q8 31 -14 34l-52 5v29h192v-29q-36 -2 -48 -11t-26 -40q-64 -144 -185 -492q-18 -53 -37.5 -87t-38.5 -49t-33.5 -19.5t-32.5 -4.5q-30 0 -50 16.5t-20 35.5q0 21 14.5 38.5t29.5 17.5
q14 0 30 -14q21 -21 37 -21q25 0 44 42q24 51 24 85q0 26 -8 49q-53 153 -157 402q-13 33 -26.5 41.5t-49.5 10.5v29zM227 542l-15 20l119 120q40 41 64 41q12 0 25.5 -14.5t13.5 -28.5q0 -24 -56 -54z" />
    <glyph glyph-name="thorn" unicode="&#xfe;" horiz-adv-x="606"
d="M192 321v-164q0 -40 7 -61q12 -34 40.5 -53.5t67.5 -19.5q146 0 146 227q0 60 -14 102.5t-36 61.5t-41 26.5t-38 7.5q-84 0 -119 -70q-13 -26 -13 -57zM362 502q52 0 90 -19.5t57.5 -46t31 -64t14 -63t2.5 -53.5q0 -144 -69 -206t-182 -62q-74 0 -114 23v-154
q0 -37 13.5 -45.5t76.5 -12.5v-29h-259v29q52 4 63.5 12.5t11.5 45.5v765q0 28 -6 36t-26 10l-38 4v25l157 25l7 -6v-286q5 3 31.5 20t42 25.5t43.5 17.5t53 9z" />
    <glyph glyph-name="ydieresis" unicode="&#xff;" horiz-adv-x="506"
d="M-5 490h229v-29l-43 -4q-16 -1 -18.5 -9.5t3.5 -21.5l123 -335h2q89 242 111 331q8 31 -14 34l-52 5v29h192v-29q-36 -2 -48 -11t-26 -40q-64 -144 -185 -492q-18 -53 -37.5 -87t-38.5 -49t-33.5 -19.5t-32.5 -4.5q-30 0 -50 16.5t-20 35.5q0 21 14.5 38.5t29.5 17.5
q14 0 30 -14q21 -21 37 -21q25 0 44 42q24 51 24 85q0 26 -8 49q-53 153 -157 402q-13 33 -26.5 41.5t-49.5 10.5v29zM164 570q-28 0 -44 17t-16 40t16 39.5t44 16.5t44 -16.5t16 -39.5t-16 -40t-44 -17zM372 570q-28 0 -44 17t-16 40t16 39.5t44 16.5t44 -16.5t16 -39.5
t-16 -40t-44 -17z" />
    <glyph glyph-name="dotlessi" unicode="&#x131;" horiz-adv-x="291"
d="M37 477l157 25l7 -6v-409q0 -38 10.5 -46t64.5 -12v-29h-244v29q54 4 64.5 12t10.5 46v315q0 26 -6 34t-26 11l-38 5v25z" />
    <glyph glyph-name="Lslash" unicode="&#x141;" horiz-adv-x="574"
d="M358 450l-128 -95v-235q0 -38 5 -53t20 -22q26 -10 107 -10q88 0 127 26t53 118h30l-12 -179h-519v29q66 4 78 13t12 51v197l-95 -70v46l95 70v263q0 42 -12 51t-78 13v29h285v-29q-70 -5 -83 -13.5t-13 -50.5v-198l128 95v-46z" />
    <glyph glyph-name="lslash" unicode="&#x142;" horiz-adv-x="294"
d="M293 478l-98 -83v-308q0 -38 10.5 -46t64.5 -12v-29h-244v29q54 4 64.5 12t10.5 46v239l-87 -73v50l87 73v266q0 28 -6 36t-26 10l-38 4v25l157 25l7 -6v-291l98 83v-50z" />
    <glyph glyph-name="OE" unicode="&#x152;" horiz-adv-x="1025"
d="M544 88v517q0 30 -27.5 41t-86.5 11q-77 0 -131.5 -26t-83.5 -72.5t-42 -98.5t-13 -114q0 -59 13 -110.5t41.5 -98.5t83.5 -74.5t130 -27.5q65 0 90.5 11t25.5 42zM453 692h506v-164h-30q-11 79 -39 104t-112 25h-98q-23 0 -30 -7t-7 -29v-242h140q32 0 50 4t27.5 16.5
t13 25t7.5 40.5h30v-211h-30q-4 29 -7.5 41t-13 25t-27.5 17t-50 4h-140v-216q0 -64 27 -77t102 -13q98 0 138 25t56 113h30l-12 -173h-536q-172 0 -260 56q-63 40 -101.5 112.5t-38.5 172.5q0 104 39 178.5t101 113.5q95 59 265 59z" />
    <glyph glyph-name="oe" unicode="&#x153;" horiz-adv-x="882"
d="M153 245q0 -106 34 -164t101 -58q68 0 102 58t34 164t-34 164t-102 58q-67 0 -101 -58t-34 -164zM809 263h-288q-4 -224 147 -224q54 0 87.5 28t57.5 78l30 -16q-48 -140 -195 -141q-125 -1 -178 78q-61 -78 -182 -78q-118 0 -178.5 67t-60.5 190t60.5 190t178.5 67
q127 0 186 -80q63 80 173 80q52 0 91 -15.5t59.5 -37.5t33 -52t15.5 -52t3 -44q0 -38 -40 -38zM522 301h189q20 0 27 8t7 24q0 14 -1.5 29t-8 35t-17.5 34.5t-31 25t-46 10.5q-36 0 -62 -19.5t-37 -49t-15.5 -53.5t-4.5 -44z" />
    <glyph glyph-name="Scaron" unicode="&#x160;" horiz-adv-x="541"
d="M60 45l-10 160h32q19 -86 65.5 -135.5t115.5 -49.5q67 0 105.5 37t38.5 101q0 41 -27.5 75.5t-54.5 49.5t-57 27l-18 7q-89 31 -139 77.5t-50 119.5q0 94 66 143.5t164 49.5q115 0 170 -44v-141h-31q-24 150 -150 150q-61 0 -94.5 -35t-33.5 -92q0 -42 34 -75t89 -53
l32 -12q97 -36 147 -85t50 -132q0 -85 -61.5 -144t-185.5 -59q-56 0 -111 15.5t-86 44.5zM411 882l13 -21l-116 -114q-26 -24 -37 -24t-37 24l-116 114l13 21l107 -61q26 -14 33 -14t33 14z" />
    <glyph glyph-name="scaron" unicode="&#x161;" horiz-adv-x="436"
d="M367 351h-29q-6 50 -34 83t-78 33q-39 0 -64 -21.5t-26 -59.5q0 -26 20.5 -46t38.5 -27t48 -17q82 -25 119.5 -61t37.5 -99q0 -65 -50 -106.5t-137 -41.5q-102 0 -156 48l-10 131h29q34 -144 146 -144q40 0 66.5 22.5t26.5 60.5q0 24 -9.5 42.5t-28 30.5t-33.5 18.5
t-37 13.5q-71 21 -110.5 54.5t-40.5 90.5q1 70 50 108t132 38q82 0 129 -34v-117zM362 720l19 -21l-117 -133q-23 -25 -36 -25t-36 25l-117 133l19 21l103 -77q21 -15 31 -15t31 15z" />
    <glyph glyph-name="Ydieresis" unicode="&#x178;" horiz-adv-x="588"
d="M461 0h-311v29q77 4 91.5 13t14.5 51v149q0 29 -15 58q-63 127 -164 313q-16 31 -32 39.5t-57 10.5v29h259v-29l-59 -6q-23 -3 -11 -30q62 -136 154 -302h2q113 221 146 301q12 29 -12 32l-54 5v29h219v-29q-49 -2 -64.5 -12.5t-42.5 -53.5q-57 -92 -157 -292
q-13 -26 -13 -59v-153q0 -42 14.5 -51t91.5 -13v-29zM208 732q-26 0 -42 16.5t-16 38.5t15.5 38t42.5 16t42.5 -16t15.5 -38t-15.5 -38.5t-42.5 -16.5zM416 732q-26 0 -42 16.5t-16 38.5t15.5 38t42.5 16t42.5 -16t15.5 -38t-15.5 -38.5t-42.5 -16.5z" />
    <glyph glyph-name="Zcaron" unicode="&#x17d;" horiz-adv-x="610"
d="M71 692h511l6 -13l-447 -644h202q120 0 163 26t56 117h32l-10 -178h-570l-5 13l447 644h-179q-102 0 -133.5 -25t-40.5 -112h-32v172zM445 882l13 -21l-116 -114q-26 -24 -37 -24t-37 24l-116 114l13 21l107 -61q26 -14 33 -14t33 14z" />
    <glyph glyph-name="zcaron" unicode="&#x17e;" horiz-adv-x="480"
d="M445 490l8 -14l-312 -441h129q84 0 116.5 24t44.5 94h31l-10 -153h-425l-8 15l315 440h-100q-80 0 -106 -21.5t-36 -91.5h-31v148h384zM374 720l19 -21l-117 -133q-23 -25 -36 -25t-36 25l-117 133l19 21l103 -77q21 -15 31 -15t31 15z" />
    <glyph glyph-name="florin" unicode="&#x192;"
d="M442 366h-138l-28 -182q-22 -149 -50 -217q-20 -50 -54.5 -76t-73.5 -26q-40 0 -70 17t-30 43q1 18 13.5 30.5t26.5 12.5q16 0 23 -16q26 -52 50 -52q17 0 28.5 18.5t17.5 69.5l49 378h-102v38h109l7 43q16 101 51 160q50 84 142 84q48 0 78.5 -21.5t30.5 -50.5
q-1 -16 -14.5 -28t-30.5 -12t-24 15q-14 36 -26.5 49t-28.5 13q-24 0 -40.5 -30.5t-29.5 -109.5l-18 -112h132v-38z" />
    <glyph glyph-name="circumflex" unicode="&#x2c6;" horiz-adv-x="400"
d="M353 562l-19 -21l-103 77q-21 15 -31 15t-31 -15l-103 -77l-19 21l117 133q23 25 36 25t36 -25z" />
    <glyph glyph-name="caron" unicode="&#x2c7;" horiz-adv-x="400"
d="M334 720l19 -21l-117 -133q-23 -25 -36 -25t-36 25l-117 133l19 21l103 -77q21 -15 31 -15t31 15z" />
    <glyph glyph-name="breve" unicode="&#x2d8;" horiz-adv-x="400"
d="M200 568q-45 0 -74 11.5t-42 33.5t-17 42.5t-4 48.5h24q2 -25 27 -48t86 -23t86 23t27 48h24q0 -28 -4 -48.5t-17 -42.5t-42 -33.5t-74 -11.5z" />
    <glyph glyph-name="dotaccent" unicode="&#x2d9;" horiz-adv-x="400"
d="M200 570q-28 0 -44 17t-16 40t16 39.5t44 16.5t44 -16.5t16 -39.5t-16 -40t-44 -17z" />
    <glyph glyph-name="ring" unicode="&#x2da;" horiz-adv-x="400"
d="M250 651q0 68 -50 68t-50 -68t50 -68t50 68zM200 752q46 0 77 -24.5t31 -76.5t-31 -76.5t-77 -24.5t-77 24.5t-31 76.5t31 76.5t77 24.5z" />
    <glyph glyph-name="ogonek" unicode="&#x2db;" horiz-adv-x="400"
d="M205 0h43q-76 -63 -76 -132q1 -39 38 -50.5t77 8.5l8 -21q-21 -18 -47 -28q-22 -7 -46 -7q-99 0 -99 91q0 37 28.5 76t73.5 63z" />
    <glyph glyph-name="tilde" unicode="&#x2dc;" horiz-adv-x="400"
d="M357 682l20 -11q-24 -47 -44 -69q-28 -26 -60 -26q-19 0 -80 19q-55 19 -80 19q-24 0 -39.5 -11.5t-32.5 -39.5l-19 13q11 22 18 33.5t21 29.5t32 26.5t41 8.5q28 0 79 -19q59 -19 76 -19q20 0 33 9t35 37z" />
    <glyph glyph-name="hungarumlaut" unicode="&#x2dd;" horiz-adv-x="400"
d="M125 546l-24 13l46 144q8 24 16.5 35.5t24.5 11.5q20 0 35 -11t15 -27q0 -21 -31 -62zM267 546l-24 13l46 144q8 24 16.5 35.5t24.5 11.5q20 0 35 -11t15 -27q0 -21 -31 -62z" />
    <glyph glyph-name="mu" unicode="&#x3bc;" horiz-adv-x="606"
d="M591 0h-160l-10 60q-5 -2 -36 -23t-64.5 -35t-66.5 -14q-66 0 -103 33h-2v-33q0 -51 29 -109q25 -48 26 -64q1 -24 -24 -42.5t-48 -18.5q-36 0 -36 47v601q0 26 -6 34t-26 11l-38 5v25l157 25l7 -6v-340q0 -56 27.5 -85t73.5 -29q39 0 72.5 20.5t50.5 54.5q8 16 8 60v225
q0 26 -6 34t-26 11l-38 5v25l157 25l7 -6v-409q0 -37 11.5 -45.5t63.5 -12.5v-29z" />
    <glyph glyph-name="endash" unicode="&#x2013;" horiz-adv-x="500"
d="M0 279h500v-58h-500v58z" />
    <glyph glyph-name="emdash" unicode="&#x2014;" horiz-adv-x="1000"
d="M0 279h1000v-58h-1000v58z" />
    <glyph glyph-name="quoteleft" unicode="&#x2018;" horiz-adv-x="278"
d="M190 748l17 -16q-55 -64 -55 -112q0 -19 16.5 -47.5t16.5 -46.5q0 -21 -13 -34.5t-35 -13.5q-26 -1 -45.5 23t-19.5 63q0 33 21 70t42.5 60.5t54.5 53.5z" />
    <glyph glyph-name="quoteright" unicode="&#x2019;" horiz-adv-x="278"
d="M89 472l-17 16q55 64 55 112q0 19 -16.5 47.5t-16.5 46.5q0 21 13 34.5t35 13.5q26 1 45.5 -23t19.5 -63q0 -33 -21 -70t-42.5 -60.5t-54.5 -53.5z" />
    <glyph glyph-name="quotesinglbase" unicode="&#x201a;" horiz-adv-x="278"
d="M89 -125l-17 16q55 64 55 112q0 19 -16.5 47.5t-16.5 46.5q0 21 13 34.5t35 13.5q26 1 45.5 -23t19.5 -63q0 -33 -21 -70t-42.5 -60.5t-54.5 -53.5z" />
    <glyph glyph-name="quotedblleft" unicode="&#x201c;" horiz-adv-x="458"
d="M190 748l17 -16q-55 -64 -55 -112q0 -19 16.5 -47.5t16.5 -46.5q0 -21 -13 -34.5t-35 -13.5q-26 -1 -45.5 23t-19.5 63q0 33 21 70t42.5 60.5t54.5 53.5zM370 748l17 -16q-55 -64 -55 -112q0 -19 16.5 -47.5t16.5 -46.5q0 -21 -13 -34.5t-35 -13.5q-26 -1 -45.5 23
t-19.5 63q0 33 21 70t42.5 60.5t54.5 53.5z" />
    <glyph glyph-name="quotedblright" unicode="&#x201d;" horiz-adv-x="458"
d="M89 472l-17 16q55 64 55 112q0 19 -16.5 47.5t-16.5 46.5q0 21 13 34.5t35 13.5q26 1 45.5 -23t19.5 -63q0 -33 -21 -70t-42.5 -60.5t-54.5 -53.5zM269 472l-17 16q55 64 55 112q0 19 -16.5 47.5t-16.5 46.5q0 21 13 34.5t35 13.5q26 1 45.5 -23t19.5 -63q0 -33 -21 -70
t-42.5 -60.5t-54.5 -53.5z" />
    <glyph glyph-name="quotedblbase" unicode="&#x201e;" horiz-adv-x="458"
d="M89 -125l-17 16q55 64 55 112q0 19 -16.5 47.5t-16.5 46.5q0 21 13 34.5t35 13.5q26 1 45.5 -23t19.5 -63q0 -33 -21 -70t-42.5 -60.5t-54.5 -53.5zM269 -125l-17 16q55 64 55 112q0 19 -16.5 47.5t-16.5 46.5q0 21 13 34.5t35 13.5q26 1 45.5 -23t19.5 -63
q0 -33 -21 -70t-42.5 -60.5t-54.5 -53.5z" />
    <glyph glyph-name="dagger" unicode="&#x2020;" horiz-adv-x="504"
d="M266 -125h-28q-4 103 -12 206t-14 162.5t-6 72.5q0 36 27 131q-46 -3 -98 -11t-63 -8q-27 0 -27 35t27 35q11 0 63 -8t98 -11q-6 41 -14 90.5t-11.5 75t-3.5 36.5q0 36 48 36t48 -36q0 -11 -3.5 -36.5t-11.5 -75t-14 -90.5q46 3 98 11t63 8q27 0 27 -35t-27 -35
q-11 0 -63 8t-98 11q27 -95 27 -131q0 -13 -5.5 -72.5t-13.5 -162.5t-13 -206z" />
    <glyph glyph-name="daggerdbl" unicode="&#x2021;" horiz-adv-x="488"
d="M244 717q46 3 46 -35q0 -15 -10 -79.5t-15 -109.5q32 1 87 9t64 8q27 0 27 -33t-27 -33q-9 0 -64 8t-87 9q3 -18 8 -41t7.5 -35t4.5 -27.5t2 -30.5t-2.5 -33t-8.5 -53.5t-11 -78.5q32 1 87 9t64 8q27 0 27 -33t-27 -33q-9 0 -64 8t-87 9q4 -46 10.5 -94t10.5 -78t4 -42
q0 -38 -46 -35q-46 -3 -46 35q0 12 4 42t10.5 78t10.5 94q-32 -1 -87 -9t-64 -8q-27 0 -27 33t27 33q9 0 64 -8t87 -9q-5 43 -11 78.5t-8.5 53.5t-2.5 33q0 19 2.5 35.5t9.5 49t10 49.5q-32 -1 -87 -9t-64 -8q-27 0 -27 33t27 33q9 0 64 -8t87 -9q-5 45 -15 109.5t-10 79.5
q0 38 46 35z" />
    <glyph glyph-name="bullet" unicode="&#x2022;" horiz-adv-x="409"
d="M205 512q65 0 112 -47.5t47 -112.5q0 -66 -47 -113t-112 -47t-112.5 47t-47.5 113q0 65 47.5 112.5t112.5 47.5z" />
    <glyph glyph-name="ellipsis" unicode="&#x2026;" horiz-adv-x="1000"
d="M167 -12q-28 0 -45.5 18t-17.5 45q0 28 17.5 46.5t45.5 18.5q29 0 46 -18.5t17 -46.5q-1 -28 -17.5 -45.5t-45.5 -17.5zM500 -12q-28 0 -45.5 18t-17.5 45q0 28 17.5 46.5t45.5 18.5q29 0 46 -18.5t17 -46.5q-1 -28 -17.5 -45.5t-45.5 -17.5zM833 -12q-28 0 -45.5 18
t-17.5 45q0 28 17.5 46.5t45.5 18.5q29 0 46 -18.5t17 -46.5q-1 -28 -17.5 -45.5t-45.5 -17.5z" />
    <glyph glyph-name="perthousand" unicode="&#x2030;" horiz-adv-x="1208"
d="M1000 322q-39 0 -61 -37.5t-22 -113.5q0 -72 22 -111.5t61 -39.5q40 0 62 39.5t22 111.5q0 151 -84 151zM1000 -12q-78 0 -117.5 47.5t-39.5 135.5t39.5 135.5t117.5 47.5q79 0 118.5 -47.5t39.5 -135.5t-39.5 -135.5t-118.5 -47.5zM630 322q-39 0 -61 -37.5t-22 -113.5
q0 -72 22 -111.5t61 -39.5q40 0 62 39.5t22 111.5q0 151 -84 151zM630 -12q-78 0 -117.5 47.5t-39.5 135.5t39.5 135.5t117.5 47.5q79 0 118.5 -47.5t39.5 -135.5t-39.5 -135.5t-118.5 -47.5zM659 679l-440 -704l-36 27l374 599h-205q13 -35 13 -104q0 -88 -39.5 -135.5
t-118.5 -47.5q-78 0 -117.5 47.5t-39.5 135.5t39.5 135.5t117.5 47.5q65 0 111 -34q20 -13 43 -13h169q27 2 42.5 8.5t28.5 24.5l24 34zM207 648q-39 0 -61 -37.5t-22 -113.5q0 -72 22 -111.5t61 -39.5q40 0 62 39.5t22 111.5q0 151 -84 151z" />
    <glyph glyph-name="guilsinglleft" unicode="&#x2039;" horiz-adv-x="257"
d="M196 435l20 -17l-79 -163q-9 -15 0 -34l79 -164l-20 -16l-150 182q-13 16 0 31z" />
    <glyph glyph-name="guilsinglright" unicode="&#x203a;" horiz-adv-x="257"
d="M41 418l20 17l150 -181q13 -15 0 -31l-150 -182l-20 16l79 164q9 19 0 34z" />
    <glyph glyph-name="fraction" unicode="&#x2044;" horiz-adv-x="150"
d="M-122 -27l-36 27l428 695l38 -24z" />
    <glyph glyph-name="trademark" unicode="&#x2122;" horiz-adv-x="1100"
d="M275 665v-326q0 -24 10.5 -30t58.5 -9v-23h-216v23q48 3 58.5 9t10.5 30v326h-32q-55 0 -73 -13.5t-26 -60.5h-21v101h381v-101h-21q-8 47 -25.5 60.5t-70.5 13.5h-34zM628 277h-167v23q30 2 42.5 8t14.5 23q3 30 3 74v225q0 23 -8.5 29t-47.5 10v23h152q9 -22 73 -160
l67 -142h2l67 143q58 124 73 159h149v-23q-39 -4 -47.5 -10t-8.5 -29v-291q0 -24 8.5 -30t47.5 -9v-23h-188v23q39 3 47.5 9t8.5 30v298h-4l-167 -349h-21l-166 349h-4v-232q0 -34 4 -74q2 -17 16 -22.5t54 -8.5v-23z" />
    <glyph glyph-name="minus" unicode="&#x2212;" horiz-adv-x="570"
d="M43 221v58h484v-58h-484z" />
    </font>
</defs>
</svg>
